<?xml version="1.0" encoding="utf-8"?>
<!-- Generator: Adobe Illustrator 27.5.0, SVG Export Plug-In . SVG Version: 6.00 Build 0)  -->
<svg version="1.1" xmlns="http://www.w3.org/2000/svg" xmlns:xlink="http://www.w3.org/1999/xlink" x="0px" y="0px"
	 viewBox="0 0 2475 1650" style="enable-background:new 0 0 2475 1650;" xml:space="preserve">
<g id="Background">
	<rect style="fill:#FFFFFF;" width="2475" height="1650"/>
</g>
<g id="Illustration">
	<g>
		<linearGradient id="SVGID_1_" gradientUnits="userSpaceOnUse" x1="183.1271" y1="848.7743" x2="2375" y2="848.7743">
			<stop  offset="0" style="stop-color:#DAE3FE"/>
			<stop  offset="1" style="stop-color:#E9EFFD"/>
		</linearGradient>
		<path style="fill:url(#SVGID_1_);" d="M2317.9,883.499c-60.95-33.186-125.273-22.248-151.765-98.561
			c-45.462-130.958-9.085-273.443-87.356-397.475c-101.766-161.259-339.327-202.276-513.352-168.48
			c-181.118,35.173-336.851,149.548-521.088,174.288c-75.611,10.153-156.136,3.663-225.517-29.89
			c-92.59-44.776-166.85-112.481-275.614-108.477c-175.538,6.462-312.621,64.052-351.683,248.383
			c-27.129,128.016,14.935,207.949,76.537,316.286c43.329,76.2,46.828,141.576,24.42,224.78
			c-24.748,91.892-48.65,209.24,10.574,292.818c52.19,73.651,134.212,125.868,222.095,145.091
			c111.562,24.403,204.988-15.094,294.445-80.665c122.791-90.005,335.09-163.424,486.387-123.603
			c132.177,34.793,229.864,150.723,369.167,173.183c96.07,15.49,239.295-9.18,270.201-117.6
			c8.104-28.431,7.787-59.419,20.912-85.909c30.373-61.299,107.324-55.46,164.94-60.995c62.311-5.987,127.596-35.716,175.838-75.141
			c32.07-26.208,57.978-61.765,65.791-102.439C2382.006,961.331,2361.761,907.388,2317.9,883.499z"/>
		<g>
			<g>
				<path style="fill:#91B3FA;" d="M292.548,671.734c-0.33,0-0.665-0.047-0.994-0.146l-16.776-5.205
					c-1.38-0.425-2.345-1.688-2.392-3.14l-0.423-13.43c-5.44-3.328-10.336-7.392-14.582-12.108l-13.269,2.04
					c-1.447,0.223-2.856-0.498-3.53-1.786l-8.178-15.522c-0.679-1.284-0.464-2.86,0.533-3.917l9.189-9.788
					c-1.488-6.172-2.07-12.511-1.735-18.872l-10.836-7.945c-1.17-0.863-1.666-2.371-1.237-3.754l5.199-16.768
					c0.432-1.383,1.692-2.341,3.14-2.392l13.432-0.421c3.327-5.437,7.392-10.333,12.109-14.581l-2.042-13.272
					c-0.221-1.443,0.498-2.864,1.789-3.53l15.521-8.177c1.28-0.675,2.854-0.464,3.913,0.528l9.789,9.191
					c6.173-1.486,12.515-2.079,18.876-1.731l7.943-10.836c0.85-1.172,2.362-1.679,3.76-1.232l16.759,5.192
					c1.387,0.438,2.345,1.697,2.392,3.14l0.423,13.435c5.435,3.324,10.332,7.391,14.581,12.107l13.274-2.04
					c1.426-0.206,2.854,0.494,3.526,1.782l8.178,15.526c0.681,1.28,0.468,2.856-0.533,3.917l-9.189,9.783
					c1.486,6.172,2.068,12.511,1.735,18.876l10.836,7.946c1.162,0.842,1.664,2.349,1.241,3.741l-5.206,16.78
					c-0.423,1.379-1.685,2.341-3.137,2.392l-13.432,0.421c-3.328,5.437-7.393,10.334-12.109,14.577l2.042,13.271
					c0.217,1.439-0.496,2.852-1.776,3.531l-15.535,8.178c-1.277,0.687-2.856,0.468-3.914-0.528l-9.786-9.191
					c-6.17,1.486-12.511,2.066-18.876,1.736l-7.944,10.836C294.645,671.236,293.614,671.734,292.548,671.734z M276.759,662.392
					l15.412,4.78l8.95-12.211l1.212,0.086c6.706,0.477,13.389-0.138,19.862-1.826l1.174-0.309l11.027,10.359l14.278-7.516
					l-2.302-14.959l0.917-0.795c5.051-4.381,9.337-9.539,12.741-15.337l0.614-1.048l15.131-0.477l4.78-15.41l-12.208-8.95
					l0.086-1.211c0.473-6.709-0.141-13.391-1.827-19.864l-0.305-1.177l10.357-11.025l-7.518-14.276l-14.955,2.302l-0.794-0.914
					c-4.385-5.055-9.548-9.342-15.344-12.743l-1.046-0.618l-0.474-15.131l-15.412-4.776l-8.953,12.21l-1.211-0.086
					c-6.7-0.49-13.383,0.137-19.858,1.821l-1.174,0.309l-11.032-10.36l-14.274,7.521l2.3,14.955l-0.917,0.795
					c-5.053,4.381-9.339,9.543-12.741,15.341l-0.614,1.048l-15.133,0.476l-4.778,15.41l12.208,8.951l-0.086,1.211
					c-0.475,6.704,0.14,13.383,1.827,19.86l0.304,1.172l-10.357,11.034l7.52,14.276l14.953-2.302l0.796,0.919
					c4.379,5.047,9.541,9.333,15.339,12.734l1.048,0.615L276.759,662.392z M333.769,663.604l-0.006,0.004L333.769,663.604z
					 M276.075,662.182h0.004H276.075z M244.473,635.91l0.002,0.004L244.473,635.91z M375.565,623.824c0,0-0.001,0-0.001,0.004
					L375.565,623.824z M381.129,608.152c0,0,0.004,0.004,0.008,0.004L381.129,608.152z M376.989,566.135l0.004,0.008
					L376.989,566.135z M368.809,550.6h0.002H368.809z M263.993,531.088l-0.01,0.004
					C263.987,531.093,263.989,531.088,263.993,531.088z M320.438,519.135c0,0,0.004,0,0.006,0.004L320.438,519.135z
					 M321.539,518.766l-0.004,0.009C321.537,518.77,321.539,518.77,321.539,518.766z M306.331,637.761
					c-4.437,0-8.895-0.67-13.25-2.023c-11.369-3.526-20.684-11.266-26.232-21.796c-11.448-21.742-3.075-48.739,18.664-60.194
					c21.734-11.454,48.741-3.075,60.191,18.666c1.481,2.809,2.663,5.776,3.509,8.817l-4.235,1.177
					c-0.764-2.736-1.827-5.407-3.165-7.941c-10.318-19.602-34.658-27.152-54.251-16.827c-19.593,10.321-27.139,34.66-16.821,54.249
					c4.999,9.496,13.396,16.471,23.641,19.649c10.243,3.182,21.117,2.173,30.61-2.826c6.44-3.388,11.833-8.452,15.595-14.642
					l3.758,2.285c-4.177,6.872-10.16,12.49-17.304,16.248C320.545,636.026,313.467,637.761,306.331,637.761z"/>
				<path style="fill:#91B3FA;" d="M306.666,611.047c-0.324,0-0.646-0.009-0.973-0.026c-4.744-0.254-9.105-2.341-12.281-5.876
					c-3.176-3.534-4.784-8.091-4.531-12.838c0.253-4.745,2.339-9.105,5.873-12.283c7.295-6.55,18.563-5.948,25.121,1.345l0,0
					c6.554,7.297,5.95,18.563-1.344,25.121C315.241,609.449,311.058,611.047,306.666,611.047z M306.636,579.875
					c-3.189,0-6.389,1.129-8.944,3.423c-5.491,4.935-5.944,13.418-1.007,18.911c2.39,2.658,5.673,4.23,9.245,4.419
					c3.56,0.206,7.004-1.018,9.663-3.41c5.491-4.935,5.944-13.418,1.01-18.91C313.963,581.369,310.306,579.875,306.636,579.875z"/>
			</g>
			<g>
				<path style="fill:#91B3FA;" d="M518.053,592.39c-1.862,0-3.556-1.125-4.274-2.861l-10.762-26.135
					c-13.164-2.405-25.841-6.812-37.714-13.107l-24.655,13.851c-1.72,0.971-3.865,0.735-5.337-0.571l-26.433-23.502
					c-1.475-1.31-1.954-3.414-1.196-5.236l10.879-26.104c-7.643-11.059-13.499-23.132-17.427-35.927l-27.215-7.632
					c-1.896-0.533-3.249-2.212-3.363-4.179l-2.072-35.313c-0.116-1.967,1.031-3.793,2.852-4.544l26.137-10.759
					c2.407-13.172,6.812-25.847,13.106-37.718l-13.853-24.658c-0.966-1.713-0.736-3.861,0.576-5.334l23.506-26.431
					c1.31-1.478,3.41-1.959,5.235-1.194l26.103,10.87c11.048-7.632,23.121-13.491,35.922-17.424l7.634-27.209
					c0.532-1.898,2.212-3.251,4.179-3.367l35.313-2.07c1.952-0.073,3.792,1.027,4.544,2.852l10.761,26.135
					c13.164,2.405,25.841,6.812,37.714,13.108l24.657-13.856c1.722-0.962,3.863-0.73,5.334,0.575l26.433,23.506
					c1.473,1.302,1.956,3.406,1.196,5.232l-10.877,26.104c7.641,11.06,13.497,23.132,17.427,35.927l27.212,7.633h-0.002
					c1.901,0.532,3.254,2.212,3.367,4.179l2.07,35.313c0.118,1.962-1.027,3.792-2.85,4.544l-26.136,10.759
					c-2.41,13.173-6.814,25.847-13.108,37.718l13.856,24.657c0.964,1.718,0.732,3.862-0.578,5.335l-23.503,26.431
					c-1.31,1.473-3.413,1.949-5.236,1.194l-26.102-10.87c-11.053,7.637-23.126,13.49-35.925,17.42l-7.632,27.212
					c-0.532,1.898-2.212,3.252-4.181,3.368l-35.311,2.069C518.234,592.385,518.144,592.39,518.053,592.39z M465.258,545.266
					l1.068,0.58c12.12,6.567,25.121,11.085,38.641,13.43l1.196,0.206l11.684,28.373l35.53-1.933l8.491-29.708l1.164-0.348
					c13.16-3.904,25.542-9.908,36.805-17.849l0.992-0.696l28.342,11.802l23.758-26.487l-15.013-27.028l0.58-1.065
					c6.567-12.116,11.085-25.116,13.428-38.641l0.209-1.198l28.372-11.678l-2.098-35.738l-29.543-8.285l-0.346-1.164
					c-3.906-13.156-9.913-25.542-17.851-36.807l-0.7-0.992l11.809-28.342l-26.491-23.755l-27.026,15.011l-1.068-0.58
					c-12.12-6.567-25.121-11.085-38.641-13.43l-1.196-0.206l-11.682-28.372l-35.532,1.932L491.648,312l-1.162,0.348
					c-13.164,3.913-25.546,9.917-36.806,17.854l-0.992,0.696l-28.342-11.803l-23.759,26.487l15.013,27.027l-0.58,1.065
					c-6.567,12.116-11.085,25.117-13.426,38.642l-0.207,1.198l-28.374,11.678l1.933,35.536l29.708,8.486l0.345,1.164
					c3.904,13.16,9.911,25.542,17.852,36.808l0.7,0.992l-11.811,28.342l26.491,23.755L465.258,545.266z M526.104,521.21
					c-45.958,0-84.625-35.97-87.348-82.428c-2.826-48.189,34.083-89.699,82.275-92.526c48.237-2.895,89.702,34.08,92.526,82.274
					c0.368,6.24,0.071,12.506-0.876,18.618l-4.346-0.671c0.899-5.807,1.181-11.759,0.833-17.691
					c-2.685-45.771-42.133-80.766-87.878-78.142c-45.773,2.689-80.829,42.107-78.144,87.879
					c2.686,45.771,42.228,80.792,87.879,78.146c15.049-0.885,29.551-5.819,41.935-14.267l2.478,3.633
					c-13.042,8.9-28.31,14.092-44.156,15.024C529.549,521.162,527.818,521.21,526.104,521.21z"/>
				<path style="fill:#91B3FA;" d="M526.783,467.721c-14.276,0-27.55-9.174-32.07-23.493c-2.704-8.56-1.911-17.661,2.228-25.624
					c4.143-7.967,11.137-13.842,19.699-16.544c17.669-5.588,36.587,4.256,42.166,21.93c5.579,17.669-4.256,36.584-21.926,42.167
					C533.526,467.219,530.125,467.721,526.783,467.721z M526.74,404.895c-2.908,0-5.86,0.438-8.777,1.357
					c-7.439,2.349-13.519,7.456-17.12,14.379c-3.599,6.924-4.287,14.835-1.939,22.273c4.849,15.359,21.29,23.906,36.65,19.061
					c15.357-4.853,23.908-21.294,19.059-36.653C550.684,412.87,539.146,404.895,526.74,404.895z"/>
			</g>
		</g>
		<g>
			<g>
				<path style="fill:#91B3FA;" d="M1873.372,243.286l63.558,153.376c16.839,40.634,14.135,86.743-7.337,125.131l-128.878,230.414
					c-14.613,26.126-20.7,56.164-17.411,85.918l14.338,129.698c5.374,48.615-14.354,96.625-52.358,127.414l0,0
					c-60.315,48.866-148.539,40.983-199.235-17.803l-80.381-93.208c-37.683-43.696-45.568-105.698-20.02-157.434l84.256-170.63
					c10.765-21.8,15.821-45.976,14.695-70.263l-11.606-250.337c-2.676-57.711,29.479-111.411,81.615-136.302l64.146-30.624
					C1753.032,133.175,1841.861,167.247,1873.372,243.286z"/>
				<g>
					<path style="fill:#7D97F4;" d="M1626.171,1151.982c-11.275-200.988,19.153-404.831,46.665-540.441
						c16.464-81.158,33.086-144.431,44.131-183.22c7.352-25.821,12.815-42.863,16.105-52.614
						c7.136-21.156,8.576-22.071,10.758-23.458c3.423-2.175,7.958-1.162,10.13,2.256c1.753,2.758,1.436,6.24-0.546,8.625
						c-10.304,19.611-133.675,412.186-112.59,788.029c0.228,4.047-2.869,7.511-6.915,7.738c-0.412,0.023-0.818,0.012-1.216-0.032
						C1629.191,1158.483,1626.376,1155.616,1626.171,1151.982z M1751.704,364.635c0.005-0.004,0.011-0.008,0.017-0.011
						C1751.715,364.627,1751.709,364.631,1751.704,364.635z M1751.732,364.617l0.003-0.002
						C1751.734,364.616,1751.732,364.617,1751.732,364.617z"/>
				</g>
			</g>
			<g>
				<path style="fill:#BDD0FB;" d="M1856.01,957.842c27.067-20.244,41.187-53.318,37.2-86.883
					c-4.255-35.833-0.297-76.239,13.152-116.739c35.294-106.286,122.575-172.964,194.948-148.932
					c72.373,24.033,102.433,129.676,67.139,235.962c-6.851,20.632-15.662,39.77-25.943,57.042
					c-15.589,26.191-17.667,58.263-5.067,86.017c11.969,26.362,14.418,57.128,4.575,86.771
					c-13.44,40.475-46.498,68.918-85.101,78.278c-22.866,5.544-42.805,19.308-55.872,38.875
					c-37.078,55.518-95.41,84.532-146.878,67.441c-65.963-21.904-95.668-111.239-66.349-199.534
					C1801.793,1014.047,1826.663,979.793,1856.01,957.842z"/>
				<path style="fill:#91B3FA;" d="M1796.521,1377.174c1.699,0.395,3.55-0.199,4.687-1.669
					c56.201-72.642,110.653-206.045,146.435-305.164c38.704-107.212,64.526-198.534,64.782-199.444
					c0.69-2.448-0.736-4.992-3.184-5.682c-2.44-0.689-4.993,0.735-5.682,3.184c-1.021,3.625-103.336,364.071-209.637,501.47
					c-1.557,2.012-1.187,4.904,0.824,6.46C1795.289,1376.749,1795.895,1377.029,1796.521,1377.174z"/>
			</g>
			<g>
				<path style="fill:#BDD0FB;" d="M652.362,328.659l-29.264,124.12c-7.753,32.883-0.015,67.507,20.999,93.961l126.132,158.785
					c14.302,18.004,22.622,40.026,23.799,62.989l5.13,100.097c1.923,37.52,22.802,71.483,55.413,90.138l0,0
					c51.755,29.606,117.668,12.746,148.85-38.076l49.441-80.58c23.179-37.776,21.507-85.754-4.244-121.826l-84.927-118.966
					c-10.85-15.199-17.666-32.904-19.808-51.456l-22.084-191.221c-5.091-44.083-36.093-80.828-78.69-93.267L790.7,248.056
					C730.012,230.334,666.871,267.123,652.362,328.659z"/>
				
					<linearGradient id="SVGID_00000119831853235266317470000002668790292748503452_" gradientUnits="userSpaceOnUse" x1="1002.5633" y1="557.9658" x2="1052.8552" y2="557.9658" gradientTransform="matrix(-0.9638 0.2666 0.2666 0.9638 1704.3456 -120.0565)">
					<stop  offset="0" style="stop-color:#B37CFF"/>
					<stop  offset="1" style="stop-color:#F895E7"/>
				</linearGradient>
				<path style="opacity:0.26;fill:url(#SVGID_00000119831853235266317470000002668790292748503452_);" d="M947.779,993.098
					c-0.296,0.082-0.602,0.141-0.918,0.174c-3.095,0.327-5.87-1.917-6.197-5.013c-30.381-287.54-172.342-569.944-182.574-583.541
					c-1.797-1.564-2.467-4.165-1.478-6.472c1.225-2.86,4.538-4.188,7.401-2.96c1.825,0.782,3.03,1.299,11.05,16.457
					c3.696,6.987,9.941,19.233,18.7,37.901c13.159,28.045,33.567,73.964,56.061,133.461
					c37.588,99.417,85.803,250.203,102.05,403.969C952.168,989.855,950.387,992.376,947.779,993.098z M759.559,405.641
					c0.005,0.002,0.009,0.004,0.014,0.006C759.568,405.645,759.563,405.643,759.559,405.641z M759.547,405.636l0.002,0.001
					L759.547,405.636z"/>
			</g>
			<g>
				<path style="fill:#91B3FA;" d="M654.31,1008.037c-20.97-20.603-29.285-50.754-21.937-79.218
					c7.843-30.388,9.14-65.675,2.269-102.148c-18.033-95.719-85.489-163.36-150.667-151.081
					c-65.178,12.279-103.397,99.829-85.364,195.548c3.5,18.581,8.864,36.103,15.712,52.187c10.384,24.391,8.437,52.275-5.657,74.727
					c-13.388,21.326-19.084,47.557-14.055,74.254c6.867,36.452,32.045,64.818,64.225,77.384
					c19.062,7.443,34.643,21.63,43.625,40.017c25.487,52.171,72.381,83.976,118.733,75.243
					c59.405-11.192,95.418-84.726,80.438-164.243C694.49,1062.797,677.046,1030.376,654.31,1008.037z"/>
				<path style="fill:#7D97F4;" d="M656.715,1376.386c-1.51,0.142-3.036-0.585-3.845-1.984
					c-39.973-69.159-71.358-190.483-90.648-280.082c-20.864-96.915-32.477-178.633-32.592-179.447
					c-0.309-2.191,1.216-4.217,3.406-4.526c2.183-0.31,4.217,1.215,4.526,3.406c0.458,3.243,46.636,325.83,122.243,456.641
					c1.107,1.915,0.452,4.365-1.464,5.472C657.827,1376.163,657.272,1376.334,656.715,1376.386z"/>
			</g>
		</g>
		<g>
			
				<linearGradient id="SVGID_00000071556544715230449430000013920395488871542692_" gradientUnits="userSpaceOnUse" x1="-1454.7969" y1="1310.941" x2="-1148.5674" y2="392.2498" gradientTransform="matrix(-1 0 0 1 -80.2228 0)">
				<stop  offset="0" style="stop-color:#09005D"/>
				<stop  offset="1" style="stop-color:#1A0F91"/>
			</linearGradient>
			<path style="fill:url(#SVGID_00000071556544715230449430000013920395488871542692_);" d="M583.864,1344.269
				c0,13.175,10.79,23.954,23.977,23.954h1296.603c13.188,0,23.978-10.779,23.978-23.954l10.789-745.122
				c0-13.175-15.522-38.896-43.97-36.963L628.058,529.395c-16.547-0.428-32.546,5.941-44.263,17.62
				c-11.717,11.679-18.129,27.647-17.737,44.179L583.864,1344.269z"/>
			
				<linearGradient id="SVGID_00000036949283180874805480000016932578378217917575_" gradientUnits="userSpaceOnUse" x1="663.5734" y1="1361.4879" x2="1767.6838" y2="587.4103">
				<stop  offset="0" style="stop-color:#4042E2"/>
				<stop  offset="1" style="stop-color:#4F52FF"/>
			</linearGradient>
			<path style="fill:url(#SVGID_00000036949283180874805480000016932578378217917575_);" d="M1847.522,590.387L633.006,557.803
				c-11.625-0.313-22.868,4.163-31.098,12.38c-8.23,8.215-12.725,19.451-12.434,31.076l18.062,719.908
				c0,12.476,10.208,22.564,22.684,22.564h1242.956c12.477,0,22.684-10.088,22.684-22.564l10.181-676.369
				C1904.843,604.092,1869.155,589.523,1847.522,590.387z"/>
			<g>
				<path style="fill:#7D97F4;" d="M1882.429,999.685c-0.016,0-0.031,0-0.046,0c-1.699-0.025-3.055-1.424-3.029-3.12l0.805-54.857
					c0.025-1.697,1.418-2.93,3.118-3.029c1.699,0.025,3.055,1.424,3.029,3.121l-0.805,54.857
					C1885.476,998.338,1884.104,999.685,1882.429,999.685z"/>
				<path style="fill:#7D97F4;" d="M1884.403,865.256c-0.015,0-0.03,0-0.046,0c-1.698-0.025-3.055-1.424-3.029-3.121l3.085-210.104
					c-0.058-12.556-3.872-22.581-11.338-29.733c-13.911-13.329-35.98-12.639-36.923-12.611l-388.159-10.408
					c-1.697-0.043-3.034-1.458-2.99-3.154c0.045-1.669,1.411-2.992,3.072-2.992c0.028,0,0.055,0,0.084,0.003l387.945,10.408
					c2.407-0.113,25.719-0.54,41.224,14.314c8.714,8.352,13.166,19.858,13.232,34.203l-3.087,210.166
					C1887.45,863.909,1886.079,865.256,1884.403,865.256z"/>
			</g>
			
				<linearGradient id="SVGID_00000169525715958532277910000001199173076000870054_" gradientUnits="userSpaceOnUse" x1="1239.1469" y1="1419.6051" x2="1265.6215" y2="1266.6411">
				<stop  offset="0" style="stop-color:#09005D"/>
				<stop  offset="1" style="stop-color:#1A0F91"/>
			</linearGradient>
			<path style="fill:url(#SVGID_00000169525715958532277910000001199173076000870054_);" d="M484.17,1430.077h1517.66
				c3.021,0,5.492-2.471,5.492-5.492V1370.1c0-3.021-2.471-5.492-5.492-5.492H484.17c-3.021,0-5.492,2.472-5.492,5.492v54.485
				C478.678,1427.606,481.15,1430.077,484.17,1430.077z"/>
		</g>
		<g>
			<g>
				<path style="fill:#BDD0FB;" d="M1430.356,1155.279h-374.713c-9.063,0-16.435-7.372-16.435-16.435V777.279
					c0-9.063,7.372-16.435,16.435-16.435h374.713c9.063,0,16.435,7.372,16.435,16.435v361.565
					C1446.791,1147.907,1439.419,1155.279,1430.356,1155.279z M1055.644,771.801c-3.021,0-5.478,2.457-5.478,5.478v361.565
					c0,3.022,2.458,5.478,5.478,5.478h374.713c3.021,0,5.478-2.457,5.478-5.478V777.279c0-3.022-2.458-5.478-5.478-5.478H1055.644z"
					/>
			</g>
			<path style="fill:#BDD0FB;" d="M1376.67,817.818H1109.33c-6.051,0-10.956,4.906-10.956,10.956v256.383
				c0,6.051,4.905,10.956,10.956,10.956h48.209c6.051,0,10.957-4.906,10.957-10.956v-17.531c0-6.051,4.905-10.957,10.956-10.957
				h127.096c6.051,0,10.956,4.906,10.956,10.957v17.531c0,6.051,4.906,10.956,10.957,10.956h48.209
				c6.051,0,10.956-4.906,10.956-10.956V828.775C1387.626,822.724,1382.72,817.818,1376.67,817.818z M1155.348,912.409
				c0,4.639-3.761,8.4-8.4,8.4h-0.731c-4.639,0-8.4-3.761-8.4-8.4v-62.086c0-4.639,3.761-8.4,8.4-8.4h0.731
				c4.639,0,8.4,3.761,8.4,8.4V912.409z M1203.557,912.409c0,4.639-3.761,8.4-8.4,8.4h-0.731c-4.639,0-8.4-3.761-8.4-8.4v-62.086
				c0-4.639,3.761-8.4,8.4-8.4h0.731c4.639,0,8.4,3.761,8.4,8.4V912.409z M1251.765,912.409c0,4.639-3.761,8.4-8.4,8.4h-0.731
				c-4.639,0-8.4-3.761-8.4-8.4v-62.086c0-4.639,3.761-8.4,8.4-8.4h0.731c4.639,0,8.4,3.761,8.4,8.4V912.409z M1299.974,912.409
				c0,4.639-3.761,8.4-8.4,8.4h-0.731c-4.639,0-8.4-3.761-8.4-8.4v-62.086c0-4.639,3.761-8.4,8.4-8.4h0.731
				c4.639,0,8.4,3.761,8.4,8.4V912.409z M1348.183,912.409c0,4.639-3.761,8.4-8.4,8.4h-0.731c-4.639,0-8.4-3.761-8.4-8.4v-62.086
				c0-4.639,3.761-8.4,8.4-8.4h0.731c4.639,0,8.4,3.761,8.4,8.4V912.409z"/>
		</g>
		<g>
			<g>
				<path style="fill:#7D97F4;" d="M2264.752,1276.801c3.851,5.698,19.156,134.714,21.551,182.363
					c0.162,3.222-2.415,5.909-5.642,5.909l0,0c-2.782,0-5.15-2.027-5.579-4.776l-27.994-179.393L2264.752,1276.801z"/>
				<path style="fill:#7D97F4;" d="M2141.7,1276.801c-3.851,5.698-19.156,134.714-21.551,182.363
					c-0.162,3.222,2.415,5.909,5.642,5.909l0,0c2.782,0,5.15-2.027,5.579-4.776l27.994-179.393L2141.7,1276.801z"/>
				<path style="fill:#7D97F4;" d="M2287.904,1266.732l0.013,1.406c0.092,10.122-8.627,18.424-19.545,18.61l-129.394,2.201
					c-10.761,0.183-19.731-7.593-20.253-17.558l-0.067-1.287c-0.545-10.392,8.281-19.147,19.503-19.348l129.448-2.32
					C2278.688,1248.236,2287.81,1256.46,2287.904,1266.732z"/>
			</g>
			<g>
				<g>
					
						<linearGradient id="SVGID_00000127746862791546951980000014746079677491571384_" gradientUnits="userSpaceOnUse" x1="2026.098" y1="1459.9829" x2="2036.0979" y2="1370.9833">
						<stop  offset="0" style="stop-color:#4042E2"/>
						<stop  offset="1" style="stop-color:#4F52FF"/>
					</linearGradient>
					<path style="fill:url(#SVGID_00000127746862791546951980000014746079677491571384_);" d="M2036.18,1454.478
						c23.002,0,33.179-1.973,37.729-3.773c-0.884,3.778-4.249,6.76-8.5,6.76h-81.372c-2.74,0-4.47-2.623-3.815-4.998
						C1989.497,1453.213,2009.198,1454.478,2036.18,1454.478z"/>
					
						<linearGradient id="SVGID_00000004505212081008319100000010401595594111113909_" gradientUnits="userSpaceOnUse" x1="290.1264" y1="1273.6682" x2="264.4906" y2="1450.7888" gradientTransform="matrix(-1 0 0 1 2291.7461 0)">
						<stop  offset="0" style="stop-color:#4042E2"/>
						<stop  offset="1" style="stop-color:#4F52FF"/>
					</linearGradient>
					<path style="fill:url(#SVGID_00000004505212081008319100000010401595594111113909_);" d="M1980.222,1452.467
						c0.132-0.479,0.326-0.95,0.666-1.385c6.199-7.914,18.65-20.342,35.588-20.104c24.813,0.349,33.464,3.041,52.747,0.151
						l4.549,15.078c0.463,1.537,0.472,3.072,0.138,4.498c-4.55,1.8-14.727,3.773-37.729,3.773
						C2009.198,1454.478,1989.497,1453.213,1980.222,1452.467z"/>
				</g>
				
					<linearGradient id="SVGID_00000024692954706885938610000008726481879510670513_" gradientUnits="userSpaceOnUse" x1="222.5239" y1="1425.8103" x2="247.9103" y2="1425.8103" gradientTransform="matrix(-1 0 0 1 2291.7461 0)">
					<stop  offset="0" style="stop-color:#FF928E"/>
					<stop  offset="1" style="stop-color:#FEB3B1"/>
				</linearGradient>
				<path style="fill:url(#SVGID_00000024692954706885938610000008726481879510670513_);" d="M2063.639,1414.881l5.584,18.99
					c0,0-12.37,5.631-23.25,1.111l-2.136-16.453L2063.639,1414.881z"/>
				<g>
					
						<linearGradient id="SVGID_00000066501895517467768510000006833807714516467074_" gradientUnits="userSpaceOnUse" x1="1908.3566" y1="1415.8564" x2="1996.8568" y2="1327.3562">
						<stop  offset="0" style="stop-color:#4042E2"/>
						<stop  offset="1" style="stop-color:#4F52FF"/>
					</linearGradient>
					<path style="fill:url(#SVGID_00000066501895517467768510000006833807714516467074_);" d="M1894.985,1442.519
						c17.931,14.407,27.094,19.251,31.763,20.704c-3.044,2.377-7.526,2.583-10.84-0.079l-63.433-50.968
						c-2.136-1.716-1.849-4.835,0.142-6.267C1859.382,1412.297,1873.951,1425.618,1894.985,1442.519z"/>
					
						<linearGradient id="SVGID_00000135657364621541088190000004177644044645159328_" gradientUnits="userSpaceOnUse" x1="417.1052" y1="1292.0471" x2="391.4695" y2="1469.167" gradientTransform="matrix(-1 0 0 1 2291.7461 0)">
						<stop  offset="0" style="stop-color:#4042E2"/>
						<stop  offset="1" style="stop-color:#4F52FF"/>
					</linearGradient>
					<path style="fill:url(#SVGID_00000135657364621541088190000004177644044645159328_);" d="M1852.617,1405.909
						c0.401-0.289,0.846-0.533,1.383-0.657c9.765-2.257,27.219-4.101,40.274,6.693c19.125,15.813,24.191,23.32,41.024,33.156
						l-5.853,14.547c-0.597,1.482-1.547,2.679-2.696,3.576c-4.669-1.454-13.833-6.297-31.763-20.704
						C1873.951,1425.618,1859.382,1412.297,1852.617,1405.909z"/>
				</g>
				
					<linearGradient id="SVGID_00000059286248935203330640000010608875279770447529_" gradientUnits="userSpaceOnUse" x1="2028.7974" y1="1224.7726" x2="2247.7979" y2="1451.7729">
					<stop  offset="0" style="stop-color:#09005D"/>
					<stop  offset="1" style="stop-color:#1A0F91"/>
				</linearGradient>
				<path style="fill:url(#SVGID_00000059286248935203330640000010608875279770447529_);" d="M2183.085,1198.517
					c0,0-137.71,11.244-165.961,24.543c-28.25,13.299,23.054,199.689,23.054,199.689s7.691,3.702,24.804-1.619
					c0,0-17.549-137.548-4.49-167.375l149.105-24.388L2183.085,1198.517z"/>
				
					<linearGradient id="SVGID_00000078016077722153323240000017234741168297445546_" gradientUnits="userSpaceOnUse" x1="342.766" y1="1427.947" x2="373.0739" y2="1427.947" gradientTransform="matrix(-1 0 0 1 2291.7461 0)">
					<stop  offset="0" style="stop-color:#FF928E"/>
					<stop  offset="1" style="stop-color:#FEB3B1"/>
				</linearGradient>
				<path style="fill:url(#SVGID_00000078016077722153323240000017234741168297445546_);" d="M1948.98,1418.918
					c-1.279,1.165-13.683,26.182-13.683,26.182s-13.809-2.988-16.625-11.727l12.425-22.579L1948.98,1418.918z"/>
				
					<linearGradient id="SVGID_00000000931628866877646650000007068942721796284309_" gradientUnits="userSpaceOnUse" x1="2119.6111" y1="1134.2444" x2="2112.6113" y2="1195.7444">
					<stop  offset="0" style="stop-color:#09005D"/>
					<stop  offset="1" style="stop-color:#1A0F91"/>
				</linearGradient>
				<path style="fill:url(#SVGID_00000000931628866877646650000007068942721796284309_);" d="M2266.027,1197.366
					c0,0,4.488,10.798,4.304,25.148c-0.253,19.845-16.208,35.949-36.03,36.938l-162.797,7.424c-3.438,0.157-6.347,2.536-7.208,5.868
					c-3.825,14.797-22.525,60.238-113.929,150.91c-2.432,2.412-6.22,2.823-9.116,0.994l-13.012-8.219
					c-1.366-0.863-1.802-2.653-0.985-4.047l94.788-161.865c4.979-8.216,12.981-14.152,22.289-16.531l138.753-35.468
					L2266.027,1197.366z"/>
				
					<linearGradient id="SVGID_00000129198676341886968790000011725446314803812252_" gradientUnits="userSpaceOnUse" x1="150.9331" y1="979.473" x2="226.4654" y2="979.473" gradientTransform="matrix(-1 0 0 1 2291.7461 0)">
					<stop  offset="0" style="stop-color:#FF928E"/>
					<stop  offset="1" style="stop-color:#FEB3B1"/>
				</linearGradient>
				<path style="fill:url(#SVGID_00000129198676341886968790000011725446314803812252_);" d="M2077.167,948.15
					c0,0,45.865,27.203,63.646,42.141l-36.752,20.505c0,0-19.86-22.941-38.78-32.5L2077.167,948.15z"/>
				
					<linearGradient id="SVGID_00000122693054837288423880000008106626902265912756_" gradientUnits="userSpaceOnUse" x1="2133.7427" y1="1138.4956" x2="1841.7429" y2="1340.995">
					<stop  offset="0" style="stop-color:#FE7062"/>
					<stop  offset="1" style="stop-color:#FF928E"/>
				</linearGradient>
				<path style="fill:url(#SVGID_00000122693054837288423880000008106626902265912756_);" d="M2268.984,1198.517
					c0,0-43.949,10.711-85.899,0c0,0-58.699-78.909-81.409-100.386c0,0-36.223,57.161-116.851,65.261l-4.497-10.048
					c0,0,64.188-29.589,83.948-75.054c19.76-45.465,27.697-64.856,45.675-76.718c11.196-7.388,17.9-12.434,21.365-15.19
					c1.897-1.509,4.514-1.679,6.584-0.418C2156.979,997.591,2246.751,1059.075,2268.984,1198.517z"/>
				
					<linearGradient id="SVGID_00000046337226827363528130000015135559485132747445_" gradientUnits="userSpaceOnUse" x1="1978.9178" y1="1049.1995" x2="1968.4178" y2="1093.6996">
					<stop  offset="0" style="stop-color:#FF928E"/>
					<stop  offset="1" style="stop-color:#FEB3B1"/>
				</linearGradient>
				<path style="fill:url(#SVGID_00000046337226827363528130000015135559485132747445_);" d="M1989.673,1148.096l-9.076-2.419
					l-27.554-6.38c-3.317-0.768-6.803-0.18-9.686,1.633l-23.692,14.906l65.429-0.11L1989.673,1148.096z"/>
				<g>
					
						<linearGradient id="SVGID_00000120536868301611701040000003589920725658663089_" gradientUnits="userSpaceOnUse" x1="2116.7761" y1="913.7704" x2="2070.2761" y2="942.7704">
						<stop  offset="0" style="stop-color:#FF928E"/>
						<stop  offset="1" style="stop-color:#FEB3B1"/>
					</linearGradient>
					<path style="fill:url(#SVGID_00000120536868301611701040000003589920725658663089_);" d="M2032.401,928.201
						c-0.128,0.889,11.745,59.074,11.745,59.074l33.079-7.486l-3.06-56.819C2074.164,922.969,2034.548,913.318,2032.401,928.201z"/>
					
						<linearGradient id="SVGID_00000104666962727788766800000011731236293526243220_" gradientUnits="userSpaceOnUse" x1="-168.5272" y1="2541.3577" x2="-87.1451" y2="2541.3577" gradientTransform="matrix(-0.9897 -0.1428 -0.1428 0.9897 2290.0823 -1579.7996)">
						<stop  offset="0" style="stop-color:#09005D"/>
						<stop  offset="1" style="stop-color:#1A0F91"/>
					</linearGradient>
					<path style="fill:url(#SVGID_00000104666962727788766800000011731236293526243220_);" d="M2066.724,935.631l3.953,29.784
						c0.051,0.382,0.05,0.759-0.004,1.141c-0.333,2.335-2.07,10.283-10.094,8.01c-7.281-2.063-13.956-3.836-18.566-2.426
						c-2.07,0.633-3.319,2.73-2.886,4.851c1.08,5.286,3.734,17.153,7.614,27.112c0.787,2.021,3,3.082,5.082,2.475
						c6.274-1.829,19.397-6.056,29.158-11.931c1.323-0.796,2.11-2.234,2.045-3.777c-0.318-7.519-1.197-30.376-0.457-36.783
						c0.695-6.014,8.075-9.617,11.282-10.909c1.052-0.423,1.875-1.252,2.296-2.304c1.485-3.721,3.532-12.332-7.319-15.861
						c-2.271-0.738-3.468-3.187-2.661-5.434c1.607-4.475,2.285-11.303-6.11-15.065c-8.532-3.824-14.905,0.725-18.346,4.421
						c-1.391,1.495-3.624,1.723-5.35,0.632c-0.983-0.621-2.249-0.825-3.778,0.128c-2.062,1.284-4.791,0.409-5.854-1.774
						c-2.044-4.194-6.208-8.687-14.561-7.256c-14.823,2.539-16.502,18.964-12.592,28.59c3.91,9.625,19.825,5.959,27.808,1.107
						c6.07-3.689,13.944,0.178,17.37,2.243C2065.839,933.26,2066.558,934.375,2066.724,935.631z"/>
					
						<linearGradient id="SVGID_00000041995023989288546300000011581993822964925093_" gradientUnits="userSpaceOnUse" x1="-216.2787" y1="2590.9922" x2="-161.6331" y2="2534.9272" gradientTransform="matrix(-0.9897 -0.1428 -0.1428 0.9897 2290.0823 -1579.7996)">
						<stop  offset="0" style="stop-color:#FF928E"/>
						<stop  offset="1" style="stop-color:#FEB3B1"/>
					</linearGradient>
					<path style="fill:url(#SVGID_00000041995023989288546300000011581993822964925093_);" d="M2083.902,964.947
						c0,0-6.094-17.064,0.167-21.243c6.26-4.179,15.533-2.009,13.492,10.352C2095.021,969.433,2083.902,964.947,2083.902,964.947z"
						/>
				</g>
			</g>
			<g>
				<g>
					
						<linearGradient id="SVGID_00000170965130532426669380000001357123788892042914_" gradientUnits="userSpaceOnUse" x1="6603.5874" y1="-10248.1719" x2="6416.3579" y2="-10067.1572" gradientTransform="matrix(1.388 -0.0686 0.0685 1.3855 8528.2588 -215.9469)">
						<stop  offset="0" style="stop-color:#09005D"/>
						<stop  offset="1" style="stop-color:#1A0F91"/>
					</linearGradient>
					<path style="fill:url(#SVGID_00000170965130532426669380000001357123788892042914_);" d="M2014.951,1168.671
						c-0.107,0.005-0.214,0.008-0.321,0.007l-139.776-0.14c-3.456-0.003-6.253-2.801-6.249-6.25c0.004-3.45,2.818-6.301,6.264-6.239
						l139.776,0.14c3.455,0.003,6.253,2.801,6.249,6.25C2020.889,1165.781,2018.257,1168.507,2014.951,1168.671z"/>
				</g>
				<g>
					
						<linearGradient id="SVGID_00000085215523187343188520000014066998926072180133_" gradientUnits="userSpaceOnUse" x1="3338.9768" y1="-9667.4238" x2="3151.7551" y2="-9486.417" gradientTransform="matrix(-0.6475 -1.2297 1.2274 -0.6463 -5002.1577 -7927.8447)">
						<stop  offset="0" style="stop-color:#09005D"/>
						<stop  offset="1" style="stop-color:#1A0F91"/>
					</linearGradient>
					<path style="fill:url(#SVGID_00000085215523187343188520000014066998926072180133_);" d="M1820.722,1031.786
						c0.05,0.095,0.098,0.19,0.142,0.288l58.812,126.801c1.455,3.134,0.097,6.851-3.032,8.302c-3.13,1.452-6.901,0.102-8.299-3.049
						l-58.812-126.801c-1.455-3.134-0.097-6.851,3.032-8.302C1815.598,1027.62,1819.18,1028.857,1820.722,1031.786z"/>
				</g>
			</g>
			<g>
				<path style="fill:#91B3FA;" d="M1952.713,1175.686c0.611,2.529,58.933,221.267,73.72,276.721
					c1.704,6.391-3.055,12.667-9.596,12.667l0,0c-4.561,0-8.536-3.143-9.641-7.621l-64.742-262.494L1952.713,1175.686z"/>
				<path style="fill:#91B3FA;" d="M1920.776,1175.686c-0.611,2.529-58.933,221.267-73.72,276.721
					c-1.704,6.391,3.055,12.667,9.596,12.667l0,0c4.561,0,8.536-3.143,9.641-7.621l64.742-262.494L1920.776,1175.686z"/>
				<path style="fill:#91B3FA;" d="M1918.346,1168.534h36.324v29.17c0,4.192-3.358,7.591-7.5,7.591h-4.983v65.521
					c0,3.174-2.542,5.747-5.678,5.747l0,0c-3.136,0-5.678-2.573-5.678-5.747v-65.521h-2.529c-5.498,0-9.955-4.511-9.955-10.075
					V1168.534z"/>
				<path style="fill:#91B3FA;" d="M2043.982,1161.527h-202.821c-2.835,0-5.31,1.941-6.018,4.719l-2.832,11.104
					c-1.019,3.996,1.976,7.886,6.054,7.863l208.115-1.21c4.034-0.024,6.977-3.869,5.992-7.828l-2.463-9.893
					C2049.314,1163.486,2046.83,1161.527,2043.982,1161.527z"/>
			</g>
		</g>
		<g>
			<g>
				
					<linearGradient id="SVGID_00000128467176767820042060000008187350057121793940_" gradientUnits="userSpaceOnUse" x1="787.209" y1="846.3052" x2="2137.0518" y2="846.3052">
					<stop  offset="0" style="stop-color:#FE7062"/>
					<stop  offset="1" style="stop-color:#FF928E"/>
				</linearGradient>
				<path style="fill:url(#SVGID_00000128467176767820042060000008187350057121793940_);" d="M1622.399,1304.288H920.575
					c-73.538,0-133.366-59.828-133.366-133.366V795.905c0-8.472,6.867-15.339,15.339-15.339s15.339,6.867,15.339,15.339v375.017
					c0,56.623,46.066,102.687,102.687,102.687h701.825c56.622,0,102.687-46.064,102.687-102.687V521.688
					c0-73.537,59.827-133.366,133.365-133.366h145.234c73.538,0,133.366,59.828,133.366,133.366V920.81
					c0,8.472-6.867,15.339-15.339,15.339c-8.472,0-15.339-6.867-15.339-15.339V521.688c0-56.623-46.066-102.687-102.688-102.687
					h-145.234c-56.622,0-102.687,46.065-102.687,102.687v649.234C1755.765,1244.459,1695.938,1304.288,1622.399,1304.288z"/>
			</g>
			<g>
				
					<linearGradient id="SVGID_00000114045638421396431670000001486129332952170634_" gradientUnits="userSpaceOnUse" x1="811.1808" y1="496.9059" x2="779.6825" y2="660.3976">
					<stop  offset="0" style="stop-color:#FE7062"/>
					<stop  offset="1" style="stop-color:#FF928E"/>
				</linearGradient>
				
					<rect x="692.983" y="419.001" style="fill:url(#SVGID_00000114045638421396431670000001486129332952170634_);" width="219.13" height="245.426"/>
				<path style="fill:#FFFFFF;" d="M892.391,359.836H712.705c-10.892,0-19.722,8.829-19.722,19.722v111.756h219.13V379.558
					C912.113,368.665,903.284,359.836,892.391,359.836z"/>
				<path style="fill:#FFFFFF;" d="M752.258,473.784c7.944,38.053,15.889,76.107,23.833,114.16
					c1.308,6.265,6.803,10.745,13.202,10.745c8.837,0,17.674,0,26.51,0c6.386,0,11.897-4.493,13.202-10.745
					c7.944-38.053,15.889-76.106,23.833-114.16C819.312,473.784,785.785,473.784,752.258,473.784z"/>
				
					<linearGradient id="SVGID_00000004544021255331828870000005949214471073446056_" gradientUnits="userSpaceOnUse" x1="801.1642" y1="598.0026" x2="811.4709" y2="1092.7169">
					<stop  offset="0" style="stop-color:#FE7062"/>
					<stop  offset="1" style="stop-color:#FF928E"/>
				</linearGradient>
				<path style="fill:url(#SVGID_00000004544021255331828870000005949214471073446056_);" d="M694.444,664.427
					c16.438,53.184,32.875,106.368,49.313,159.552c3.298,10.67,13.141,17.943,24.309,17.943c22.988,0,45.976,0,68.964,0
					c11.156,0,21.015-7.285,24.309-17.943c16.438-53.184,32.876-106.368,49.313-159.552
					C838.583,664.427,766.514,664.427,694.444,664.427z"/>
				<g>
					
						<linearGradient id="SVGID_00000041255935310189282570000005422628370082928533_" gradientUnits="userSpaceOnUse" x1="946.0448" y1="127.8807" x2="841.0503" y2="268.8736">
						<stop  offset="0" style="stop-color:#FE7062"/>
						<stop  offset="1" style="stop-color:#FF928E"/>
					</linearGradient>
					<path style="fill:url(#SVGID_00000041255935310189282570000005422628370082928533_);" d="M736.809,457.714
						c0,6.454-4.234,11.687-10.281,11.687h-0.684c-6.046,0-10.948-5.232-10.948-11.687v-68.661c0-6.454,4.902-11.687,10.948-11.687
						h0.684c6.046,0,10.281,5.232,10.281,11.687V457.714z"/>
					
						<linearGradient id="SVGID_00000030449144706008670900000015058818629215754155_" gradientUnits="userSpaceOnUse" x1="971.3011" y1="146.6886" x2="866.3066" y2="287.6815">
						<stop  offset="0" style="stop-color:#FE7062"/>
						<stop  offset="1" style="stop-color:#FF928E"/>
					</linearGradient>
					<path style="fill:url(#SVGID_00000030449144706008670900000015058818629215754155_);" d="M776.253,457.714
						c0,6.454-4.675,11.687-10.721,11.687h-0.684c-6.047,0-10.507-5.232-10.507-11.687v-68.661c0-6.454,4.461-11.687,10.507-11.687
						h0.684c6.046,0,10.721,5.232,10.721,11.687V457.714z"/>
					
						<linearGradient id="SVGID_00000107579509975775951740000015777424606827976838_" gradientUnits="userSpaceOnUse" x1="996.5575" y1="165.4962" x2="891.563" y2="306.4891">
						<stop  offset="0" style="stop-color:#FE7062"/>
						<stop  offset="1" style="stop-color:#FF928E"/>
					</linearGradient>
					<path style="fill:url(#SVGID_00000107579509975775951740000015777424606827976838_);" d="M815.696,457.714
						c0,6.454-5.116,11.687-11.162,11.687h-0.684c-6.047,0-10.067-5.232-10.067-11.687v-68.661c0-6.454,4.02-11.687,10.067-11.687
						h0.684c6.046,0,11.162,5.232,11.162,11.687V457.714z"/>
					
						<linearGradient id="SVGID_00000094576428273117031220000003048440343119790515_" gradientUnits="userSpaceOnUse" x1="1021.3943" y1="183.9914" x2="916.3994" y2="324.9848">
						<stop  offset="0" style="stop-color:#FE7062"/>
						<stop  offset="1" style="stop-color:#FF928E"/>
					</linearGradient>
					<path style="fill:url(#SVGID_00000094576428273117031220000003048440343119790515_);" d="M855.139,457.714
						c0,6.454-5.557,11.687-11.603,11.687h-0.684c-6.047,0-11.817-5.232-11.817-11.687v-68.661c0-6.454,5.771-11.687,11.817-11.687
						h0.684c6.047,0,11.603,5.232,11.603,11.687V457.714z"/>
					
						<linearGradient id="SVGID_00000064352111488899228250000008954101864539523006_" gradientUnits="userSpaceOnUse" x1="1046.2405" y1="202.4943" x2="941.2457" y2="343.4876">
						<stop  offset="0" style="stop-color:#FE7062"/>
						<stop  offset="1" style="stop-color:#FF928E"/>
					</linearGradient>
					<path style="fill:url(#SVGID_00000064352111488899228250000008954101864539523006_);" d="M892.391,457.714
						c0,6.454-3.806,11.687-9.852,11.687h-0.684c-6.046,0-11.376-5.232-11.376-11.687v-68.661c0-6.454,5.33-11.687,11.376-11.687
						h0.684c6.046,0,9.852,5.232,9.852,11.687V457.714z"/>
				</g>
				
					<linearGradient id="SVGID_00000047758573179173024950000006639631490038342796_" gradientUnits="userSpaceOnUse" x1="835.4331" y1="433.6123" x2="815.9342" y2="606.1036">
					<stop  offset="0" style="stop-color:#FE7062"/>
					<stop  offset="1" style="stop-color:#FF928E"/>
				</linearGradient>
				<path style="fill:url(#SVGID_00000047758573179173024950000006639631490038342796_);" d="M912.113,715.189
					c0,4.641-3.762,8.404-8.404,8.404H703.578c-4.641,0-8.404-3.763-8.404-8.404v-0.723c0-4.641,3.762-8.404,8.404-8.404H903.71
					c4.641,0,8.404,3.762,8.404,8.404V715.189z"/>
				
					<linearGradient id="SVGID_00000150821367635951304510000011077974101189078687_" gradientUnits="userSpaceOnUse" x1="838.7155" y1="433.9841" x2="819.2166" y2="606.475">
					<stop  offset="0" style="stop-color:#FE7062"/>
					<stop  offset="1" style="stop-color:#FF928E"/>
				</linearGradient>
				<path style="fill:url(#SVGID_00000150821367635951304510000011077974101189078687_);" d="M898.965,754.09
					c0,4.365-2.25,8.946-6.376,8.946H714.645c-4.127,0-8.515-4.581-8.515-8.946v-0.68c0-4.365,4.388-7.904,8.515-7.904h177.944
					c4.127,0,6.376,3.539,6.376,7.904V754.09z"/>
				
					<linearGradient id="SVGID_00000103257229703143845500000007224676802988624263_" gradientUnits="userSpaceOnUse" x1="844.4086" y1="434.6266" x2="824.9096" y2="607.1179">
					<stop  offset="0" style="stop-color:#FE7062"/>
					<stop  offset="1" style="stop-color:#FF928E"/>
				</linearGradient>
				<path style="fill:url(#SVGID_00000103257229703143845500000007224676802988624263_);" d="M888.009,795.195
					c0,4.096-1.293,9.475-4.927,9.475H726.41c-3.633,0-7.131-5.379-7.131-9.475v-0.638c0-4.096,3.498-7.417,7.131-7.417h156.672
					c3.633,0,4.927,3.321,4.927,7.417V795.195z"/>
			</g>
		</g>
		<g>
			<path style="fill:#FFFFFF;" d="M1947.011,1119.359l2.552-6.183c0.699-1.695-0.108-3.635-1.803-4.334
				c-1.694-0.699-3.635,0.108-4.333,1.803l-0.013,0.03l-0.043,0.107l-2.404,5.994l-0.043,0.107
				c-0.676,1.684,0.141,3.598,1.827,4.274C1944.424,1121.827,1946.324,1121.021,1947.011,1119.359z"/>
			<path style="fill:#FFFFFF;" d="M1954.677,1098.419l1.826-6.426c0.518-1.82-0.538-3.715-2.358-4.233
				c-1.82-0.518-3.715,0.538-4.233,2.359l-0.01,0.032l-0.03,0.11l-1.703,6.223l-0.03,0.11c-0.494,1.808,0.569,3.674,2.378,4.17
				C1952.314,1101.256,1954.168,1100.206,1954.677,1098.419z"/>
			<path style="fill:#FFFFFF;" d="M1959.934,1076.77l1.113-6.594c0.325-1.925-0.972-3.748-2.896-4.072
				c-1.925-0.325-3.748,0.971-4.072,2.896l-0.006,0.034l-0.017,0.111l-1.012,6.381l-0.018,0.112
				c-0.303,1.909,0.999,3.703,2.909,4.006C1957.831,1079.946,1959.614,1078.659,1959.934,1076.77z"/>
			<path style="fill:#FFFFFF;" d="M1962.823,1054.675l0.414-6.674c0.124-2.007-1.403-3.735-3.41-3.859
				c-2.006-0.125-3.734,1.402-3.859,3.409l-0.002,0.035l-0.005,0.112l-0.337,6.453l-0.005,0.112
				c-0.104,1.99,1.425,3.687,3.415,3.791C1961.012,1058.157,1962.7,1056.647,1962.823,1054.675z"/>
			<path style="fill:#FFFFFF;" d="M1963.406,1032.402l-0.263-6.678c-0.081-2.068-1.825-3.68-3.894-3.597
				c-2.068,0.081-3.68,1.824-3.598,3.893l0.002,0.038l0.005,0.11l0.318,6.452l0.005,0.111c0.101,2.05,1.845,3.63,3.894,3.529
				C1961.913,1036.16,1963.485,1034.435,1963.406,1032.402z"/>
			<path style="fill:#FFFFFF;" d="M1961.76,1010.183l-0.919-6.632c-0.292-2.109-2.24-3.582-4.349-3.29
				c-2.11,0.292-3.583,2.24-3.291,4.349l0.005,0.037l0.017,0.111l0.95,6.399l0.017,0.111c0.31,2.089,2.254,3.53,4.343,3.22
				C1960.609,1014.18,1962.045,1012.257,1961.76,1010.183z"/>
			<path style="fill:#FFFFFF;" d="M1957.956,988.219l-1.55-6.504c-0.507-2.129-2.645-3.444-4.774-2.937
				c-2.129,0.507-3.444,2.645-2.937,4.774l0.01,0.037l0.028,0.11l1.559,6.27l0.027,0.11c0.524,2.107,2.657,3.39,4.764,2.865
				C1957.175,992.424,1958.454,990.313,1957.956,988.219z"/>
			<path style="fill:#FFFFFF;" d="M1952.067,966.722l-2.165-6.33c-0.728-2.127-3.042-3.262-5.17-2.535
				c-2.127,0.728-3.261,3.042-2.534,5.169l0.013,0.038l0.038,0.109l2.15,6.089l0.039,0.11c0.742,2.102,3.049,3.206,5.152,2.464
				C1951.679,971.099,1952.781,968.815,1952.067,966.722z"/>
			<path style="fill:#FFFFFF;" d="M1944.147,945.876l-2.765-6.098c-0.953-2.101-3.429-3.032-5.531-2.08
				c-2.101,0.953-3.033,3.429-2.08,5.531l0.017,0.037l0.05,0.109l2.722,5.852l0.052,0.109c0.966,2.076,3.431,2.976,5.507,2.01
				C1944.182,950.387,1945.083,947.943,1944.147,945.876z"/>
			<path style="fill:#FFFFFF;" d="M1934.243,925.876l-3.355-5.811c-1.183-2.049-3.805-2.752-5.855-1.568
				c-2.049,1.184-2.752,3.805-1.567,5.854l0.02,0.036l0.065,0.11l3.283,5.557l0.064,0.11c1.195,2.022,3.803,2.693,5.825,1.499
				C1934.732,930.478,1935.406,927.893,1934.243,925.876z"/>
			<path style="fill:#FFFFFF;" d="M1922.382,906.931l-3.932-5.43c-1.415-1.953-4.143-2.389-6.096-0.976
				c-1.953,1.414-2.389,4.144-0.976,6.097l0.014,0.019l0.08,0.108l3.803,5.193l0.08,0.108c1.418,1.937,4.139,2.356,6.075,0.937
				C1923.36,911.573,1923.783,908.866,1922.382,906.931z"/>
			<path style="fill:#FFFFFF;" d="M1908.618,889.31l-4.487-4.997c-1.633-1.819-4.431-1.97-6.25-0.337
				c-1.819,1.633-1.97,4.431-0.337,6.25l0.017,0.018l0.095,0.105l4.323,4.762l0.095,0.105c1.636,1.803,4.423,1.937,6.226,0.301
				C1910.097,893.888,1910.236,891.113,1908.618,889.31z"/>
			<path style="fill:#FFFFFF;" d="M1893.041,873.231l-5.012-4.483c-1.846-1.652-4.682-1.495-6.334,0.352
				c-1.652,1.847-1.494,4.682,0.353,6.334l0.018,0.017l0.112,0.098l4.811,4.258l0.112,0.099c1.848,1.635,4.672,1.462,6.307-0.386
				C1895.037,877.679,1894.87,874.868,1893.041,873.231z"/>
			<path style="fill:#FFFFFF;" d="M1875.759,858.958l-5.493-3.888c-2.049-1.451-4.886-0.965-6.337,1.084
				c-1.451,2.049-0.965,4.887,1.084,6.338l0.02,0.015l0.129,0.09l5.256,3.676l0.13,0.091c2.049,1.434,4.871,0.934,6.305-1.115
				C1878.28,863.207,1877.789,860.397,1875.759,858.958z"/>
			<path style="fill:#FFFFFF;" d="M1857.001,846.728l-5.856-3.281c-2.219-1.243-5.027-0.452-6.27,1.768
				c-1.244,2.22-0.453,5.028,1.768,6.271l0.021,0.012l0.121,0.068l5.631,3.114l0.122,0.067c2.217,1.226,5.01,0.423,6.236-1.795
				C1859.996,850.741,1859.201,847.96,1857.001,846.728z"/>
			<path style="fill:#FFFFFF;" d="M1837.128,836.481l-6.141-2.691c-2.361-1.035-5.113,0.04-6.148,2.401
				c-1.035,2.361,0.039,5.115,2.401,6.149l0.023,0.01l0.121,0.052l5.913,2.552l0.122,0.053c2.357,1.018,5.093-0.068,6.111-2.426
				C1840.545,840.232,1839.468,837.507,1837.128,836.481z"/>
			<path style="fill:#FFFFFF;" d="M1816.393,828.184l-6.353-2.117c-2.477-0.826-5.155,0.512-5.981,2.989
				c-0.826,2.477,0.513,5.154,2.99,5.98l0.025,0.009l0.118,0.039l6.128,2.005l0.119,0.04c2.472,0.809,5.132-0.539,5.941-3.011
				C1820.185,831.654,1818.848,829.004,1816.393,828.184z"/>
			<path style="fill:#FFFFFF;" d="M1795.031,821.764l-6.499-1.576c-2.57-0.624-5.158,0.955-5.782,3.525
				c-0.624,2.57,0.955,5.158,3.525,5.782l0.026,0.006l0.11,0.026l6.284,1.488l0.113,0.027c2.563,0.607,5.133-0.98,5.74-3.543
				C1799.153,824.944,1797.579,822.383,1795.031,821.764z"/>
			<path style="fill:#FFFFFF;" d="M1773.246,817.104l-6.591-1.075c-2.643-0.431-5.135,1.361-5.566,4.004
				c-0.431,2.643,1.361,5.136,4.004,5.567l0.027,0.004l0.103,0.016l6.39,1.006l0.105,0.017c2.635,0.415,5.108-1.385,5.523-4.02
				C1777.654,819.997,1775.867,817.532,1773.246,817.104z"/>
			<path style="fill:#FFFFFF;" d="M1751.206,814.063l-6.641-0.617c-2.7-0.252-5.091,1.733-5.342,4.433
				c-0.252,2.7,1.733,5.092,4.433,5.343l0.027,0.002l0.095,0.009l6.453,0.564l0.096,0.009c2.691,0.235,5.063-1.755,5.298-4.446
				C1755.86,816.679,1753.883,814.314,1751.206,814.063z"/>
			<path style="fill:#FFFFFF;" d="M1729.041,812.498l-6.66-0.203c-2.743-0.083-5.035,2.072-5.119,4.816
				c-0.083,2.743,2.073,5.035,4.816,5.119l0.028,0.001l0.087,0.002l6.484,0.162l0.089,0.002c2.734,0.068,5.005-2.092,5.074-4.826
				C1733.907,814.847,1731.76,812.581,1729.041,812.498z"/>
			<path style="fill:#FFFFFF;" d="M1706.843,812.268l-6.653,0.171c-2.777,0.073-4.97,2.382-4.898,5.158
				c0.072,2.778,2.382,4.971,5.158,4.898h0.028l0.08-0.003l6.491-0.203l0.081-0.002c2.766-0.086,4.939-2.4,4.851-5.167
				C1711.896,814.364,1709.596,812.198,1706.843,812.268z"/>
			<path style="fill:#FFFFFF;" d="M1684.692,813.262l-6.627,0.524c-2.787,0.22-4.867,2.658-4.647,5.444
				c0.219,2.787,2.658,4.867,5.444,4.647h0.01l0.074-0.006l6.478-0.523l0.075-0.006c2.783-0.225,4.857-2.663,4.632-5.446
				C1689.904,815.112,1687.475,813.037,1684.692,813.262z"/>
			<path style="fill:#FFFFFF;" d="M1662.641,815.376l-6.59,0.833c-2.784,0.352-4.756,2.894-4.404,5.678
				c0.351,2.784,2.894,4.756,5.678,4.405l0.009-0.002l0.069-0.009l6.452-0.827l0.069-0.009c2.78-0.356,4.745-2.9,4.389-5.68
				C1667.955,816.986,1665.421,815.019,1662.641,815.376z"/>
			<path style="fill:#FFFFFF;" d="M1640.724,818.489l-6.553,1.117c-2.777,0.474-4.645,3.109-4.171,5.887
				c0.474,2.778,3.109,4.645,5.887,4.172l0.009-0.002l0.063-0.011l6.424-1.107l0.063-0.012c2.773-0.478,4.634-3.114,4.156-5.887
				C1646.124,819.872,1643.497,818.011,1640.724,818.489z"/>
			<path style="fill:#FFFFFF;" d="M1618.979,822.508l-6.476,1.355c-2.768,0.579-4.543,3.293-3.964,6.061
				c0.579,2.769,3.292,4.544,6.061,3.965l0.009-0.002l0.05-0.011l6.374-1.345l0.05-0.011c2.765-0.583,4.532-3.297,3.949-6.061
				C1624.449,823.694,1621.744,821.925,1618.979,822.508z"/>
			<path style="fill:#FFFFFF;" d="M1597.428,827.278l-6.435,1.567c-2.759,0.673-4.451,3.454-3.778,6.214
				c0.672,2.758,3.454,4.45,6.212,3.778l0.01-0.002l0.047-0.012l6.336-1.557l0.048-0.012c2.754-0.676,4.439-3.458,3.762-6.212
				C1602.954,828.288,1600.182,826.6,1597.428,827.278z"/>
			<path style="fill:#FFFFFF;" d="M1576.04,832.741l-6.38,1.768c-2.748,0.761-4.357,3.605-3.596,6.352
				c0.761,2.747,3.606,4.357,6.352,3.596l0.01-0.003l0.045-0.012l6.286-1.755l0.046-0.013c2.742-0.765,4.345-3.609,3.58-6.352
				C1581.618,833.581,1578.782,831.975,1576.04,832.741z"/>
			<path style="fill:#FFFFFF;" d="M1554.838,838.855l-6.323,1.955c-2.734,0.845-4.265,3.747-3.42,6.481
				c0.845,2.734,3.747,4.265,6.481,3.42l0.009-0.002l0.043-0.014l6.235-1.94l0.042-0.013c2.729-0.85,4.254-3.75,3.405-6.48
				C1560.459,839.532,1557.567,838.005,1554.838,838.855z"/>
			<path style="fill:#FFFFFF;" d="M1533.829,845.578l-6.264,2.129c-2.72,0.924-4.175,3.879-3.251,6.599
				c0.925,2.72,3.879,4.176,6.599,3.252l0.009-0.003l0.04-0.014l6.181-2.113l0.04-0.014c2.715-0.928,4.163-3.882,3.235-6.596
				C1539.49,846.101,1536.545,844.65,1533.829,845.578z"/>
			<path style="fill:#FFFFFF;" d="M1513.021,852.866l-6.205,2.29c-2.705,0.999-4.088,4.002-3.089,6.707
				c0.998,2.706,4.001,4.089,6.707,3.09l0.009-0.003l0.036-0.013l6.127-2.274l0.036-0.014c2.701-1.003,4.077-4.004,3.074-6.705
				C1518.713,853.243,1515.72,851.864,1513.021,852.866z"/>
			<path style="fill:#FFFFFF;" d="M1492.411,860.677l-6.145,2.439c-2.69,1.069-4.006,4.115-2.937,6.806
				c1.068,2.69,4.114,4.006,6.805,2.938l0.008-0.004l0.034-0.013l6.072-2.423l0.034-0.014c2.685-1.071,3.993-4.117,2.922-6.803
				C1498.133,860.917,1495.097,859.605,1492.411,860.677z"/>
			<path style="fill:#FFFFFF;" d="M1471.999,868.968l-6.086,2.576c-2.676,1.132-3.927,4.22-2.795,6.896
				c1.132,2.676,4.22,3.928,6.896,2.795l0.009-0.003l0.031-0.014l6.019-2.559l0.031-0.013c2.672-1.136,3.916-4.222,2.78-6.894
				C1477.747,869.08,1474.67,867.833,1471.999,868.968z"/>
			<path style="fill:#FFFFFF;" d="M1451.781,877.7l-6.028,2.699c-2.662,1.192-3.854,4.316-2.662,6.979
				c1.192,2.662,4.316,3.854,6.978,2.662l0.009-0.004l0.029-0.013l5.966-2.685l0.029-0.013c2.657-1.195,3.841-4.318,2.646-6.975
				C1457.552,877.694,1454.438,876.505,1451.781,877.7z"/>
			<path style="fill:#FFFFFF;" d="M1431.75,886.831l-5.968,2.809c-2.648,1.246-3.786,4.405-2.539,7.054
				c1.246,2.649,4.405,3.786,7.054,2.539l0.009-0.004l0.026-0.012l5.911-2.796l0.026-0.012c2.644-1.25,3.774-4.407,2.524-7.051
				C1437.542,886.715,1434.394,885.58,1431.75,886.831z"/>
			<path style="fill:#FFFFFF;" d="M1411.912,896.317l-5.921,2.911c-2.638,1.297-3.724,4.486-2.427,7.124
				c1.297,2.638,4.486,3.724,7.124,2.427l0.009-0.004l0.024-0.011l5.869-2.899l0.023-0.012c2.632-1.301,3.712-4.488,2.411-7.121
				C1417.723,896.1,1414.544,895.017,1411.912,896.317z"/>
			<path style="fill:#FFFFFF;" d="M1392.225,906.133l-5.877,3.005c-2.627,1.343-3.667,4.56-2.325,7.187
				c1.343,2.627,4.561,3.668,7.188,2.325l0.009-0.004l0.02-0.011l5.83-2.994l0.021-0.011c2.621-1.346,3.655-4.562,2.309-7.184
				C1398.054,905.825,1394.847,904.788,1392.225,906.133z"/>
			<path style="fill:#FFFFFF;" d="M1372.694,916.24l-5.836,3.086c-2.618,1.384-3.617,4.628-2.234,7.246
				c1.384,2.617,4.629,3.618,7.246,2.233l0.008-0.004l0.018-0.01l5.794-3.077l0.018-0.01c2.613-1.388,3.606-4.63,2.218-7.242
				C1378.54,915.85,1375.306,914.853,1372.694,916.24z"/>
			<path style="fill:#FFFFFF;" d="M1353.304,926.605l-5.792,3.167c-2.6,1.421-3.555,4.682-2.135,7.282
				c1.422,2.601,4.682,3.556,7.283,2.134l0.009-0.004l5.765-3.139l0.016-0.009c2.605-1.419,3.568-4.681,2.149-7.288
				c-1.419-2.605-4.681-3.567-7.286-2.148L1353.304,926.605z"/>
			<path style="fill:#FFFFFF;" d="M1334.059,937.223l-5.757,3.227c-2.577,1.443-3.495,4.704-2.05,7.28
				c1.444,2.576,4.704,3.495,7.281,2.05l0.005-0.003l5.734-3.201l0.014-0.007c2.581-1.441,3.505-4.704,2.064-7.284
				c-1.441-2.582-4.704-3.506-7.284-2.065L1334.059,937.223z"/>
			<path style="fill:#FFFFFF;" d="M1314.928,948.028l-5.721,3.275c-2.555,1.463-3.441,4.72-1.979,7.275
				c1.463,2.554,4.72,3.44,7.274,1.977l0.004-0.002l5.704-3.253l0.012-0.006c2.561-1.459,3.452-4.719,1.992-7.278
				c-1.459-2.56-4.719-3.452-7.278-1.992L1314.928,948.028z"/>
			<path style="fill:#FFFFFF;" d="M1295.895,958.992l-5.691,3.314c-2.536,1.476-3.394,4.729-1.917,7.264
				c1.475,2.536,4.729,3.393,7.265,1.917l5.678-3.294c2.543-1.468,3.414-4.721,1.946-7.264c-1.469-2.543-4.721-3.415-7.265-1.946
				L1295.895,958.992z"/>
			<path style="fill:#FFFFFF;" d="M1276.95,970.075l-5.674,3.34c-2.52,1.483-3.36,4.728-1.877,7.248
				c1.484,2.52,4.725,3.363,7.245,1.879l5.672-3.328c2.526-1.479,3.375-4.725,1.896-7.251c-1.479-2.525-4.725-3.375-7.251-1.896
				L1276.95,970.075z"/>
			<path style="fill:#FFFFFF;" d="M1258.062,981.207l-5.661,3.336c-2.511,1.478-3.35,4.712-1.871,7.223
				c1.478,2.511,4.707,3.352,7.218,1.875l5.672-3.33c2.516-1.477,3.358-4.713,1.881-7.229c-1.476-2.516-4.713-3.358-7.229-1.881
				L1258.062,981.207z"/>
			<path style="fill:#FFFFFF;" d="M1239.187,992.303l-5.669,3.308c-2.511,1.46-3.364,4.678-1.905,7.189
				c1.458,2.51,4.679,3.363,7.189,1.904l5.692-3.31c2.512-1.462,3.365-4.684,1.904-7.197c-1.462-2.513-4.683-3.366-7.197-1.904
				L1239.187,992.303z"/>
			<path style="fill:#FFFFFF;" d="M1220.269,1003.279l-5.691,3.256l-0.015,0.01c-2.512,1.437-3.383,4.638-1.945,7.151
				c1.437,2.512,4.631,3.388,7.143,1.949l5.726-3.264c2.516-1.435,3.394-4.638,1.959-7.155c-1.435-2.516-4.638-3.394-7.156-1.959
				l-0.007,0.004L1220.269,1003.279z"/>
			<path style="fill:#FFFFFF;" d="M1201.261,1014.049l-5.727,3.179l-0.021,0.012c-2.522,1.399-3.431,4.578-2.032,7.1
				c1.399,2.522,4.571,3.436,7.093,2.036l5.775-3.192c2.526-1.397,3.442-4.578,2.046-7.104c-1.397-2.527-4.578-3.443-7.105-2.046
				l-0.007,0.004L1201.261,1014.049z"/>
			<path style="fill:#FFFFFF;" d="M1182.117,1024.528l-5.784,3.078l-0.028,0.015c-2.537,1.35-3.5,4.501-2.15,7.038
				c1.35,2.538,4.495,3.504,7.032,2.154l5.844-3.098c2.542-1.347,3.51-4.5,2.162-7.043c-1.347-2.542-4.5-3.51-7.043-2.163
				l-0.007,0.004L1182.117,1024.528z"/>
			<path style="fill:#FFFFFF;" d="M1162.788,1034.631l-5.84,2.942l-0.034,0.017c-2.558,1.289-3.586,4.407-2.297,6.965
				c1.288,2.557,4.4,3.59,6.957,2.302l5.912-2.967c2.563-1.286,3.599-4.406,2.312-6.97c-1.286-2.563-4.406-3.597-6.969-2.311
				l-0.008,0.004L1162.788,1034.631z"/>
			<path style="fill:#FFFFFF;" d="M1143.248,1044.256l-5.906,2.779l-0.041,0.02c-2.583,1.215-3.691,4.294-2.476,6.877
				c1.215,2.583,4.287,3.694,6.87,2.479l5.992-2.809c2.587-1.212,3.702-4.293,2.489-6.88c-1.212-2.587-4.293-3.702-6.88-2.49
				l-0.007,0.004L1143.248,1044.256z"/>
			<path style="fill:#FFFFFF;" d="M1123.476,1053.306l-5.981,2.588l-0.048,0.02c-2.611,1.13-3.811,4.162-2.681,6.773
				c1.13,2.61,4.154,3.813,6.764,2.683l6.082-2.619c2.615-1.127,3.821-4.16,2.694-6.775c-1.127-2.615-4.16-3.822-6.775-2.695
				l-0.008,0.003L1123.476,1053.306z"/>
			<path style="fill:#FFFFFF;" d="M1103.438,1061.687l-6.065,2.37l-0.055,0.021c-2.641,1.031-3.944,4.008-2.913,6.647
				c1.032,2.64,4,3.947,6.639,2.916l6.18-2.402c2.644-1.028,3.955-4.006,2.927-6.651c-1.028-2.644-4.006-3.955-6.65-2.926
				l-0.009,0.003L1103.438,1061.687z"/>
			<path style="fill:#FFFFFF;" d="M1083.113,1069.304l-6.151,2.112l-0.066,0.023c-2.672,0.917-4.094,3.826-3.176,6.498
				c0.917,2.671,3.819,4.096,6.489,3.178l6.287-2.147c2.676-0.914,4.103-3.824,3.189-6.5c-0.914-2.675-3.824-4.103-6.499-3.19
				l-0.009,0.003L1083.113,1069.304z"/>
			<path style="fill:#FFFFFF;" d="M1062.503,1076.013l-6.24,1.821l-0.071,0.021c-2.702,0.788-4.252,3.619-3.464,6.32
				c0.789,2.702,3.61,4.254,6.312,3.466l6.385-1.853c2.706-0.785,4.263-3.616,3.477-6.322c-0.785-2.706-3.615-4.263-6.322-3.477
				l-0.007,0.002L1062.503,1076.013z"/>
			<path style="fill:#FFFFFF;" d="M1041.608,1081.728l-6.318,1.509l-0.076,0.018c-2.727,0.652-4.41,3.392-3.759,6.119
				s3.382,4.413,6.111,3.761l6.472-1.534c2.732-0.648,4.421-3.388,3.774-6.12c-0.648-2.732-3.388-4.421-6.119-3.773l-0.009,0.002
				L1041.608,1081.728z"/>
			<path style="fill:#FFFFFF;" d="M1020.468,1086.37l-6.384,1.171l-0.082,0.015c-2.749,0.505-4.568,3.141-4.064,5.89
				c0.504,2.749,3.133,4.57,5.882,4.066l6.55-1.19c2.752-0.501,4.578-3.137,4.078-5.89c-0.5-2.752-3.137-4.578-5.889-4.078
				l-0.008,0.001L1020.468,1086.37z"/>
			<path style="fill:#FFFFFF;" d="M999.124,1089.853l-6.432,0.813l-0.09,0.012c-2.757,0.349-4.709,2.867-4.36,5.624
				c0.349,2.756,2.843,4.711,5.599,4.362l6.614-0.805c2.768-0.336,4.738-2.853,4.402-5.62c-0.337-2.768-2.852-4.738-5.62-4.402
				l-0.024,0.003L999.124,1089.853z"/>
			<path style="fill:#FFFFFF;" d="M977.637,1092.111l-6.465,0.415l-0.096,0.006c-2.742,0.177-4.823,2.543-4.647,5.287
				c0.177,2.742,2.519,4.824,5.262,4.648l6.657-0.395c2.753-0.163,4.852-2.527,4.69-5.28c-0.164-2.753-2.528-4.852-5.281-4.689
				l-0.024,0.001L977.637,1092.111z"/>
			<path style="fill:#FFFFFF;" d="M956.072,1093.001l-6.471-0.016h-0.104c-2.719-0.008-4.928,2.191-4.935,4.91
				c-0.006,2.719,2.167,4.927,4.885,4.935l6.677,0.049c2.727,0.021,4.956-2.174,4.976-4.901c0.02-2.727-2.175-4.955-4.903-4.975
				l-0.024-0.001H956.072z"/>
			<path style="fill:#FFFFFF;" d="M934.515,1092.412l-6.441-0.481l-0.11-0.009c-2.681-0.2-5.017,1.81-5.217,4.492
				c-0.2,2.681,1.787,5.015,4.467,5.215l6.657,0.531c2.689,0.215,5.043-1.791,5.258-4.481c0.214-2.689-1.792-5.043-4.481-5.257
				l-0.025-0.002L934.515,1092.412z"/>
			<path style="fill:#FFFFFF;" d="M913.093,1090.235l-6.383-0.978l-0.116-0.018c-2.628-0.402-5.085,1.402-5.487,4.03
				c-0.402,2.628,1.377,5.08,4.005,5.482l6.608,1.046c2.634,0.417,5.108-1.38,5.525-4.016c0.417-2.634-1.38-5.109-4.016-5.526
				l-0.024-0.003L913.093,1090.235z"/>
			<path style="fill:#FFFFFF;" d="M891.925,1086.371l-6.275-1.5l-0.119-0.029c-2.556-0.611-5.124,0.966-5.735,3.524
				c-0.611,2.556,0.944,5.118,3.5,5.729l6.504,1.589c2.563,0.626,5.147-0.944,5.772-3.506c0.626-2.563-0.945-5.146-3.506-5.773
				l-0.023-0.005L891.925,1086.371z"/>
			<path style="fill:#FFFFFF;" d="M871.177,1080.748l-6.117-2.039l-0.123-0.041c-2.464-0.822-5.128,0.51-5.95,2.976
				s0.488,5.122,2.953,5.944l6.35,2.152c2.47,0.837,5.15-0.487,5.987-2.956c0.837-2.47-0.487-5.15-2.956-5.986l-0.021-0.008
				L871.177,1080.748z"/>
			<path style="fill:#FFFFFF;" d="M851.024,1073.308l-5.907-2.584l-0.115-0.05c-2.353-1.029-5.094,0.044-6.123,2.398
				c-1.029,2.353,0.022,5.084,2.375,6.114l6.123,2.715c2.356,1.044,5.112-0.018,6.158-2.375c1.044-2.356-0.019-5.112-2.375-6.158
				l-0.021-0.009L851.024,1073.308z"/>
			<path style="fill:#FFFFFF;" d="M831.612,1064.088l-5.66-3.097l-0.107-0.058c-2.227-1.218-5.019-0.401-6.238,1.825
				c-1.218,2.227-0.42,5.008,1.806,6.226l5.856,3.243c2.229,1.235,5.036,0.428,6.27-1.801c1.234-2.229,0.428-5.035-1.801-6.269
				l-0.02-0.012L831.612,1064.088z"/>
			<path style="fill:#FFFFFF;" d="M813.067,1053.192l-5.375-3.579l-0.097-0.065c-2.087-1.391-4.907-0.826-6.298,1.262
				c-1.39,2.087-0.844,4.895,1.243,6.285l5.552,3.737c2.089,1.406,4.921,0.853,6.327-1.235c1.406-2.089,0.853-4.921-1.236-6.327
				l-0.018-0.013L813.067,1053.192z"/>
			<path style="fill:#FFFFFF;" d="M795.522,1040.726l-5.05-4.03l-0.091-0.072c-1.936-1.546-4.76-1.228-6.305,0.708
				c-1.546,1.937-1.245,4.746,0.691,6.292l5.21,4.2c1.937,1.561,4.772,1.257,6.333-0.68c1.561-1.937,1.256-4.772-0.68-6.332
				l-0.017-0.015L795.522,1040.726z"/>
			<path style="fill:#FFFFFF;" d="M779.101,1026.799l-4.689-4.448l-0.082-0.078c-1.776-1.685-4.582-1.611-6.267,0.165
				c-1.685,1.775-1.626,4.566,0.149,6.251l4.831,4.629c1.774,1.7,4.59,1.64,6.29-0.134c1.7-1.774,1.64-4.59-0.134-6.29l-0.016-0.016
				L779.101,1026.799z"/>
			<path style="fill:#FFFFFF;" d="M763.931,1011.514l-4.287-4.834l-0.076-0.085c-1.605-1.809-4.372-1.975-6.181-0.37
				c-1.808,1.605-1.988,4.356-0.384,6.164l4.415,5.027c1.602,1.823,4.378,2.003,6.202,0.402c1.824-1.602,2.004-4.378,0.402-6.203
				l-0.014-0.016L763.931,1011.514z"/>
			<path style="fill:#FFFFFF;" d="M750.139,994.981l-3.853-5.184l-0.069-0.092c-1.422-1.914-4.128-2.313-6.042-0.89
				c-1.907,1.417-2.309,4.108-0.906,6.021l3.955,5.393c1.418,1.933,4.134,2.351,6.067,0.933c1.933-1.418,2.351-4.133,0.933-6.067
				l-0.016-0.023L750.139,994.981z"/>
			<path style="fill:#FFFFFF;" d="M737.825,977.326l-3.384-5.502l-0.06-0.097c-1.222-1.986-3.823-2.605-5.809-1.383
				c-1.975,1.214-2.598,3.794-1.403,5.777l3.453,5.725c1.213,2.012,3.826,2.658,5.837,1.446c2.01-1.213,2.658-3.825,1.446-5.837
				l-0.019-0.032L737.825,977.326z"/>
			<path style="fill:#FFFFFF;" d="M727.133,958.643l-2.872-5.79l-0.05-0.103c-1.012-2.041-3.488-2.875-5.529-1.863
				c-2.03,1.007-2.865,3.461-1.879,5.496l2.92,6.02c1,2.064,3.486,2.926,5.551,1.925c2.065-1.001,2.927-3.487,1.925-5.551
				l-0.016-0.033L727.133,958.643z"/>
			<path style="fill:#FFFFFF;" d="M718.182,939.055l-2.337-6.026l-0.04-0.102c-0.804-2.075-3.138-3.104-5.212-2.299
				c-2.063,0.8-3.092,3.114-2.312,5.18l2.361,6.25c0.792,2.097,3.133,3.154,5.23,2.362c2.096-0.792,3.154-3.133,2.362-5.23
				l-0.013-0.033L718.182,939.055z"/>
			<path style="fill:#FFFFFF;" d="M711.02,918.735l-1.798-6.215l-0.029-0.1c-0.603-2.087-2.784-3.288-4.869-2.685
				c-2.075,0.6-3.274,2.76-2.694,4.836l1.799,6.431c0.589,2.107,2.776,3.336,4.882,2.748c2.107-0.59,3.337-2.775,2.748-4.882
				l-0.01-0.034L711.02,918.735z"/>
			<path style="fill:#FFFFFF;" d="M705.661,897.842l-1.254-6.352l-0.019-0.098c-0.41-2.078-2.427-3.43-4.505-3.021
				c-2.066,0.408-3.414,2.406-3.027,4.473l1.235,6.559c0.394,2.098,2.414,3.478,4.512,3.084c2.097-0.395,3.477-2.415,3.084-4.512
				l-0.006-0.034L705.661,897.842z"/>
			<path style="fill:#FFFFFF;" d="M702.122,876.55l-0.704-6.442l-0.011-0.095c-0.225-2.052-2.07-3.534-4.122-3.31
				c-2.041,0.224-3.517,2.052-3.314,4.091l0.668,6.639c0.208,2.07,2.054,3.58,4.125,3.372c2.07-0.209,3.58-2.055,3.372-4.126
				l-0.003-0.033L702.122,876.55z"/>
			<path style="fill:#FFFFFF;" d="M700.419,855.02l-0.151-6.481l-0.002-0.094c-0.047-2.01-1.715-3.603-3.726-3.556
				c-2,0.047-3.584,1.698-3.557,3.693l0.096,6.669c0.03,2.028,1.697,3.647,3.724,3.618c2.027-0.029,3.647-1.696,3.617-3.723v-0.032
				L700.419,855.02z"/>
			<path style="fill:#FFFFFF;" d="M700.565,833.417l0.407-6.471l0.005-0.092c0.123-1.954-1.361-3.638-3.315-3.76
				c-1.943-0.123-3.618,1.346-3.758,3.284l-0.477,6.651c-0.141,1.969,1.34,3.68,3.308,3.821c1.97,0.141,3.68-1.341,3.821-3.31
				l0.002-0.031L700.565,833.417z"/>
			<path style="fill:#FFFFFF;" d="M702.576,811.907l0.969-6.409l0.014-0.091c0.284-1.883-1.011-3.64-2.894-3.925
				c-1.872-0.282-3.621,0.998-3.919,2.863l-1.055,6.582c-0.304,1.896,0.988,3.68,2.884,3.983c1.896,0.304,3.68-0.987,3.983-2.884
				l0.006-0.03L702.576,811.907z"/>
			<path style="fill:#FFFFFF;" d="M706.465,790.658L708,784.36l0.021-0.088c0.438-1.799-0.664-3.611-2.463-4.05
				c-1.788-0.436-3.591,0.654-4.041,2.434l-1.635,6.46c-0.458,1.81,0.638,3.648,2.447,4.107c1.81,0.458,3.649-0.638,4.108-2.447
				l0.007-0.03L706.465,790.658z"/>
		</g>
		<g>
			<g>
				<path style="fill:#BDD0FB;" d="M577.959,1115.888L220.99,1113.9c-14.613-0.081-23.691,15.853-16.169,28.382l1.792,2.985
					c3.387,5.641,9.485,9.093,16.064,9.093h355.177c10.348,0,18.738-8.389,18.738-18.737v-0.997
					C596.592,1124.318,588.266,1115.946,577.959,1115.888z"/>
				<path style="fill:#BDD0FB;" d="M627.824,1135.041v0.581c0,10.348,8.389,18.737,18.737,18.737h79.243
					c8.486,0,15.912-5.703,18.102-13.901l0,0c3.164-11.843-5.707-23.484-17.965-23.574l-79.243-0.581
					C636.297,1116.228,627.824,1124.639,627.824,1135.041z"/>
			</g>
			<g>
				<path style="fill:#BDD0FB;" d="M492.09,1183.15l-271.101-1.989c-14.613-0.081-23.691,15.853-16.169,28.382l1.792,2.985
					c3.387,5.641,9.485,9.093,16.064,9.093h269.308c10.348,0,18.737-8.389,18.737-18.737v-0.997
					C510.724,1191.579,502.398,1183.207,492.09,1183.15z"/>
				<path style="fill:#BDD0FB;" d="M541.955,1202.303v0.581c0,10.348,8.389,18.737,18.738,18.737h79.243
					c8.486,0,15.912-5.703,18.102-13.901l0,0c3.164-11.843-5.707-23.484-17.965-23.574l-79.243-0.581
					C550.428,1183.49,541.955,1191.901,541.955,1202.303z"/>
			</g>
		</g>
		<g>
			<g>
				<path style="fill:#BDD0FB;" d="M2068.033,291.95l-356.969-1.989c-14.613-0.081-23.691,15.853-16.169,28.382l1.792,2.985
					c3.387,5.641,9.485,9.093,16.065,9.093h355.177c10.349,0,18.738-8.389,18.738-18.737v-0.997
					C2086.666,300.38,2078.341,292.008,2068.033,291.95z"/>
				<path style="fill:#BDD0FB;" d="M2117.898,311.103v0.581c0,10.349,8.389,18.737,18.738,18.737h79.243
					c8.486,0,15.912-5.703,18.103-13.901l0,0c3.164-11.843-5.708-23.484-17.965-23.574l-79.243-0.581
					C2126.371,292.29,2117.898,300.701,2117.898,311.103z"/>
			</g>
			<g>
				<path style="fill:#BDD0FB;" d="M1982.164,359.212l-271.101-1.989c-14.613-0.081-23.691,15.853-16.169,28.382l1.792,2.985
					c3.387,5.641,9.485,9.093,16.065,9.093h269.308c10.348,0,18.737-8.389,18.737-18.737v-0.997
					C2000.797,367.641,1992.472,359.269,1982.164,359.212z"/>
				<path style="fill:#BDD0FB;" d="M2032.029,378.365v0.581c0,10.349,8.389,18.737,18.738,18.737h79.243
					c8.486,0,15.912-5.703,18.102-13.901l0,0c3.164-11.843-5.708-23.484-17.965-23.574l-79.243-0.581
					C2040.502,359.552,2032.029,367.963,2032.029,378.365z"/>
			</g>
		</g>
		<g>
			
				<linearGradient id="SVGID_00000134929328653633475040000013704577696315325094_" gradientUnits="userSpaceOnUse" x1="167.0574" y1="1207.2272" x2="-109.0595" y2="742.1877" gradientTransform="matrix(-1 0 0 1 324.1675 0)">
				<stop  offset="0" style="stop-color:#09005D"/>
				<stop  offset="1" style="stop-color:#1A0F91"/>
			</linearGradient>
			<path style="fill:url(#SVGID_00000134929328653633475040000013704577696315325094_);" d="M353.444,727.55
				c3.287,0.379-10.643,23.037-11.503,23.94c-19.15,20.089-50.531,22.099-67.966,44.615c-18.378,23.734-21.816,55.854-17.404,84.694
				c2.673,17.472,0.33,30.985-8.713,46.05c-7.836,13.055-16.868,25.325-16.446,41.316c0.832,31.508,17.745,68.074,48.493,80.547
				c14.018,5.687,35.385,5.137,49.577,0.038c87.625-31.487,97.149-69.436,80.68-98.5c-16.469-29.063-13.596-46.018,2.729-63.78
				c16.326-17.762,13.222-128.811-15.767-143.025C368.203,729.265,353.512,727.558,353.444,727.55z"/>
			
				<linearGradient id="SVGID_00000069369833779334998690000010291813494588409021_" gradientUnits="userSpaceOnUse" x1="-4906.4287" y1="734.1523" x2="-4821.5947" y2="927.1694" gradientTransform="matrix(-1 0 0 1 -4416.3276 0)">
				<stop  offset="0" style="stop-color:#A22B25"/>
				<stop  offset="1" style="stop-color:#C0423C"/>
			</linearGradient>
			<path style="fill:url(#SVGID_00000069369833779334998690000010291813494588409021_);" d="M529.242,673.539
				c0,0-44.039,120.055-119.079,157.577c0,0,24.976,40.751,38.01,43.223c0,0,80.162-102.598,88.334-186.654L529.242,673.539z"/>
			
				<linearGradient id="SVGID_00000038400116013521719630000010804631218723433659_" gradientUnits="userSpaceOnUse" x1="-4594.2974" y1="1111.5979" x2="-4608.2974" y2="1248.0978" gradientTransform="matrix(-1 0 0 1 -4416.3276 0)">
				<stop  offset="0" style="stop-color:#09005D"/>
				<stop  offset="1" style="stop-color:#1A0F91"/>
			</linearGradient>
			<path style="fill:url(#SVGID_00000038400116013521719630000010804631218723433659_);" d="M227.455,1395.708l-2.215,18.207
				c-0.42,3.454-3.139,6.185-6.597,6.58c-5.837,0.667-15.203,1.35-24.367,0.382c-4.022-0.425-6.634-4.498-5.409-8.353
				c2.234-7.029,6.321-17.58,12.214-23.789h20.197C225.013,1388.734,227.906,1392.001,227.455,1395.708z"/>
			
				<linearGradient id="SVGID_00000157293890622189160840000003223885912187107200_" gradientUnits="userSpaceOnUse" x1="892.1774" y1="764.6782" x2="703.1583" y2="965.6987">
				<stop  offset="0" style="stop-color:#A22B25"/>
				<stop  offset="1" style="stop-color:#C0423C"/>
			</linearGradient>
			<path style="fill:url(#SVGID_00000157293890622189160840000003223885912187107200_);" d="M385.647,1182.424l3.409,20.054
				c0,0-11.416,115.634-13.447,161.888c-0.318,7.252,1.558,14.418,5.364,20.599l19.85,32.235l-50.45-29.77l-1.005-6.156
				l8.259-11.355l-10.817-129.539c-0.635-7.61,0.935-15.242,4.523-21.982l10.435-19.604L385.647,1182.424z"/>
			
				<linearGradient id="SVGID_00000046326170094551961290000002434165797212686783_" gradientUnits="userSpaceOnUse" x1="-4761.4941" y1="1094.4491" x2="-4775.4941" y2="1230.949" gradientTransform="matrix(-1 0 0 1 -4416.3276 0)">
				<stop  offset="0" style="stop-color:#09005D"/>
				<stop  offset="1" style="stop-color:#1A0F91"/>
			</linearGradient>
			<path style="fill:url(#SVGID_00000046326170094551961290000002434165797212686783_);" d="M404.146,1421.87h-16.1
				c-3.013,0-5.856-1.384-7.693-3.772c-5.019-6.522-15.418-19.245-20.39-19.577c-6.693-0.447-5.837,23.349-5.837,23.349h-3.752
				l-4.752-29.569c-1.196-7.44,2.504-14.81,9.185-18.296l0,0c0,0,1.53,11.316,9.827,16.321c8.296,5.005,33.761,22.93,33.761,22.93
				s3.119-0.445,6.543,0.174C410.018,1414.348,409.308,1421.87,404.146,1421.87z"/>
			
				<linearGradient id="SVGID_00000083053567590124454330000000595352439321200532_" gradientUnits="userSpaceOnUse" x1="1026.6486" y1="907.9726" x2="705.6175" y2="1069.9879">
				<stop  offset="0" style="stop-color:#A22B25"/>
				<stop  offset="1" style="stop-color:#C0423C"/>
			</linearGradient>
			<path style="fill:url(#SVGID_00000083053567590124454330000000595352439321200532_);" d="M316.547,1191.949
				c0,0-66.878,126.862-77.509,155.826c-10.631,28.965-14.355,53.128-14.498,55.416c-0.223,3.575-4.67,7.005-16.928,7.005
				c-6.326,0-9.424-2.536-10.941-4.99c-1.295-2.094-1.361-4.714-0.271-6.922c3.869-7.829,16.146-32.85,20.693-44.197
				c5.429-13.549,17.106-74.951,23.51-96.3c6.404-21.349,13.643-44.507,41.532-65.838
				C282.135,1191.949,301.279,1173.198,316.547,1191.949z"/>
			
				<linearGradient id="SVGID_00000080885785012418505680000011816970673736454332_" gradientUnits="userSpaceOnUse" x1="-4806.9775" y1="898.168" x2="-4778.959" y2="1158.1187" gradientTransform="matrix(-1 0 0 1 -4416.3276 0)">
				<stop  offset="0" style="stop-color:#FE7062"/>
				<stop  offset="1" style="stop-color:#FF928E"/>
			</linearGradient>
			<path style="fill:url(#SVGID_00000080885785012418505680000011816970673736454332_);" d="M358.796,984.079
				c17.252-73.102-26.452-114.447-26.452-114.447c27.576-26.47,77.82-38.515,77.82-38.515s47.943,35.051,42.255,62.486
				c-3.333,16.08-33.699,96.314-33.699,96.314S390.641,1003.205,358.796,984.079z"/>
			
				<linearGradient id="SVGID_00000160150916109221588790000002966516434912612542_" gradientUnits="userSpaceOnUse" x1="802.4756" y1="677.792" x2="568.452" y2="902.8147">
				<stop  offset="0" style="stop-color:#09005D"/>
				<stop  offset="1" style="stop-color:#1A0F91"/>
			</linearGradient>
			<path style="fill:url(#SVGID_00000160150916109221588790000002966516434912612542_);" d="M320.547,1020.27
				c7.021-21.15,38.249-36.191,38.249-36.191c31.845,19.126,59.924,5.837,59.924,5.837s6.297,24.07,1.951,46.438
				c-4.346,22.368-31.614,166.123-31.614,166.123c-42.966,8.706-109.045-8.759-109.045-8.759
				C307.379,1145.13,313.526,1041.42,320.547,1020.27z"/>
			
				<linearGradient id="SVGID_00000163767782070395298000000015748022553713301936_" gradientUnits="userSpaceOnUse" x1="401.2697" y1="760.5977" x2="373.2697" y2="873.5975">
				<stop  offset="0" style="stop-color:#A22B25"/>
				<stop  offset="1" style="stop-color:#C0423C"/>
			</linearGradient>
			<path style="fill:url(#SVGID_00000163767782070395298000000015748022553713301936_);" d="M378.821,782.809l-14.026,63.001
				c-1.343,5.549,3.716,4.641,9.326,3.583c9.188-1.732,21.03-5.3,24.989-12.449c0.403-0.727,0.604-1.55,0.718-2.374l6.026-43.687
				c0.478-3.466-1.396-6.83-4.594-8.248l-11.628-5.156C385.155,775.494,379.973,778.049,378.821,782.809z"/>
			
				<linearGradient id="SVGID_00000127722996488597645340000004578592094100427934_" gradientUnits="userSpaceOnUse" x1="-4771.1245" y1="950.5839" x2="-4701.2021" y2="950.5839" gradientTransform="matrix(-1 0 0 1 -4416.3276 0)">
				<stop  offset="0" style="stop-color:#A22B25"/>
				<stop  offset="1" style="stop-color:#C0423C"/>
			</linearGradient>
			<path style="fill:url(#SVGID_00000127722996488597645340000004578592094100427934_);" d="M332.344,869.632
				c0,0-97.894,70.038-12.52,143.633c0,0,3.256,3.683,9.66,5.597c3.233,0.966,12.797,8.202,17.646,11.975
				c1.559,1.213,3.811,0.8,4.859-0.874l0,0c0.822-1.312,0.918-2.952,0.256-4.351l-12.119-25.628
				c-3.365-3.141-8.517-3.363-12.141-0.525l0,0c-2.312,1.81-5.699,1.052-6.993-1.584c-6.6-13.441-19.061-52.974,31.945-97.646
				c1.917-1.679,2.402-4.457,1.226-6.718C350.578,886.628,342.382,872.958,332.344,869.632z"/>
			
				<linearGradient id="SVGID_00000128468505285575385550000015909105906384755607_" gradientUnits="userSpaceOnUse" x1="-4369.2041" y1="1428.6385" x2="-4416.2041" y2="1358.1384" gradientTransform="matrix(-1 0 0 1 -4416.3276 0)">
				<stop  offset="0" style="stop-color:#A22B25"/>
				<stop  offset="1" style="stop-color:#C0423C"/>
			</linearGradient>
			<path style="fill:url(#SVGID_00000128468505285575385550000015909105906384755607_);" d="M395.277,722.822
				c0,0,16.611,7.014,27.906,31.019c11.295,24.004,2.86,35.087-7.735,36.609c-10.595,1.522-26.439,1.29-43.198-14.216
				C355.491,760.726,373.684,714.508,395.277,722.822z"/>
			
				<linearGradient id="SVGID_00000087408319887155597340000001226328541754092705_" gradientUnits="userSpaceOnUse" x1="211.2248" y1="1181.3365" x2="-64.8914" y2="716.2983" gradientTransform="matrix(-1 0 0 1 324.1675 0)">
				<stop  offset="0" style="stop-color:#09005D"/>
				<stop  offset="1" style="stop-color:#1A0F91"/>
			</linearGradient>
			<path style="fill:url(#SVGID_00000087408319887155597340000001226328541754092705_);" d="M383.516,763.417
				c0,0-12.533-35.119,18.603-35.534l7.327,5.121c0,0,11.424-19.471-7.327-28.766c-18.751-9.294-40.696-1.617-48.675,23.645
				c-7.98,25.262-9.342,42.172,3.933,54.259c13.275,12.087,18.746-1.618,18.746-1.618s-7.229-11.305-4.286-17.353
				c2.943-6.048,9.731,1.251,9.731,1.251L383.516,763.417z"/>
			
				<linearGradient id="SVGID_00000055691556692973021540000014498627726759289756_" gradientUnits="userSpaceOnUse" x1="-4356.3198" y1="1418.0453" x2="-4403.3193" y2="1347.5454" gradientTransform="matrix(-1 0 0 1 -4416.3276 0)">
				<stop  offset="0" style="stop-color:#A22B25"/>
				<stop  offset="1" style="stop-color:#C0423C"/>
			</linearGradient>
			<path style="fill:url(#SVGID_00000055691556692973021540000014498627726759289756_);" d="M383.024,767.329
				c0,0-6.337-18.091-14.79-10.886c-8.453,7.205,6.87,16.71,12.869,19.79L383.024,767.329z"/>
			<g>
				
					<linearGradient id="SVGID_00000056425418795573687650000015938499997706690963_" gradientUnits="userSpaceOnUse" x1="-4923.1929" y1="741.5203" x2="-4838.3584" y2="934.5369" gradientTransform="matrix(-1 0 0 1 -4416.3276 0)">
					<stop  offset="0" style="stop-color:#A22B25"/>
					<stop  offset="1" style="stop-color:#C0423C"/>
				</linearGradient>
				<path style="fill:url(#SVGID_00000056425418795573687650000015938499997706690963_);" d="M533.469,695.391
					c0.672,2.136-7.108,5.388-11.69-3.348c-0.16-4.187-2.707-22.124-0.205-25.535c13.325-18.166,39.159-40.938,39.159-40.938
					c4.366,4.308,0.769,8.54,0.769,8.54l-12.532,13.056c2.621,4.737,5.819,8.735,7.317,14.465c1.135,4.34,0.441,8.977-1.751,12.926
					c-2.2,3.963-5.201,9.115-8.038,13.147C541.128,695.333,533.469,695.391,533.469,695.391z"/>
				
					<linearGradient id="SVGID_00000005959102283052443830000016947297054333600182_" gradientUnits="userSpaceOnUse" x1="543.6071" y1="564.488" x2="541.1071" y2="604.9879">
					<stop  offset="0" style="stop-color:#A22B25"/>
					<stop  offset="1" style="stop-color:#C0423C"/>
				</linearGradient>
				<path style="fill:url(#SVGID_00000005959102283052443830000016947297054333600182_);" d="M539.744,686.445l-2.157-0.385
					c0.141-0.79,3.491-19.377,6.113-23.646c1.023-1.663,1.406-2.994,1.136-3.953c-0.156-0.556-0.56-1.049-1.226-1.489l-10.614,8.996
					l-3.485,9.371l-2.054-0.762l3.686-9.91l12.195-10.338l0.651,0.332c1.617,0.826,2.584,1.877,2.957,3.208
					c0.447,1.594-0.004,3.456-1.379,5.692C543.57,666.813,540.686,681.183,539.744,686.445z"/>
			</g>
			<path style="fill:#91B3FA;" d="M270.572,890.711c-0.28,0-0.519-0.214-0.545-0.499c-6.332-70.545,36.43-105.797,56.91-111.046
				c16.076-4.122,23.583-23.064,23.658-23.255c0.109-0.285,0.426-0.415,0.708-0.315c0.282,0.109,0.423,0.428,0.312,0.708
				c-0.076,0.197-7.791,19.662-24.407,23.922c-9.348,2.397-24.802,12.427-36.641,28.782c-10.849,14.988-23.029,41.226-19.449,81.104
				c0.027,0.302-0.196,0.567-0.496,0.595C270.605,890.711,270.589,890.711,270.572,890.711z"/>
			<path style="fill:#91B3FA;" d="M284.874,1031.751c-0.066,0-0.133-0.013-0.198-0.036c-0.353-0.137-35.239-14.122-34.634-52.81
				c0.005-0.302,0.264-0.588,0.556-0.539c0.303,0.004,0.544,0.255,0.539,0.556c-0.593,37.935,33.589,51.637,33.934,51.77
				c0.283,0.109,0.423,0.428,0.312,0.71C285.301,1031.618,285.094,1031.751,284.874,1031.751z"/>
		</g>
		<g>
			<g>
				
					<ellipse transform="matrix(0.7071 -0.7071 0.7071 0.7071 84.3487 1009.3193)" style="fill:#7D97F4;" cx="1260.53" cy="402.842" rx="120.003" ry="120.003"/>
				
					<ellipse transform="matrix(0.7071 -0.7071 0.7071 0.7071 84.3487 1009.3193)" style="fill:#91B3FA;" cx="1260.531" cy="402.842" rx="116.013" ry="116.013"/>
				
					<linearGradient id="SVGID_00000099631562389607650310000004286712282214170299_" gradientUnits="userSpaceOnUse" x1="1152.3596" y1="390.4325" x2="1156.3676" y2="390.4325">
					<stop  offset="0" style="stop-color:#DAE3FE"/>
					<stop  offset="1" style="stop-color:#E9EFFD"/>
				</linearGradient>
				<path style="fill:url(#SVGID_00000099631562389607650310000004286712282214170299_);" d="M1153.587,398.384
					c-0.022,0-0.044,0-0.065-0.001c-0.676-0.036-1.195-0.613-1.16-1.288c0.238-4.558,0.768-9.135,1.575-13.606
					c0.12-0.665,0.753-1.108,1.424-0.989c0.666,0.121,1.108,0.758,0.988,1.424c-0.788,4.369-1.305,8.843-1.539,13.297
					C1154.775,397.876,1154.234,398.384,1153.587,398.384z"/>
				
					<linearGradient id="SVGID_00000043445217580180812390000006801534225401122968_" gradientUnits="userSpaceOnUse" x1="1163.6417" y1="325.1986" x2="1281.0765" y2="325.1986">
					<stop  offset="0" style="stop-color:#DAE3FE"/>
					<stop  offset="1" style="stop-color:#E9EFFD"/>
				</linearGradient>
				<path style="fill:url(#SVGID_00000043445217580180812390000006801534225401122968_);" d="M1164.866,355.875
					c-0.186,0-0.374-0.042-0.551-0.132c-0.604-0.305-0.847-1.043-0.541-1.646c18.548-36.747,55.623-59.575,96.757-59.575
					c6.56,0,13.134,0.591,19.539,1.76c0.666,0.121,1.108,0.759,0.986,1.425c-0.121,0.667-0.757,1.112-1.426,0.985
					c-6.261-1.141-12.687-1.719-19.1-1.719c-40.203,0-76.44,22.312-94.569,58.227
					C1165.746,355.628,1165.315,355.875,1164.866,355.875z"/>
				
					<ellipse transform="matrix(0.7071 -0.7071 0.7071 0.7071 83.3017 1011.8469)" style="opacity:0.78;fill:#FFFFFF;" cx="1263.058" cy="405.369" rx="98.191" ry="98.191"/>
			</g>
			<g>
				<g>
					<path style="fill:#91B3FA;" d="M1239.899,419c14.238-12.498,35.987-11.082,48.485,3.156c0.774,0.883,1.491,1.795,2.155,2.733
						c0.893,1.262,2.714,1.377,3.713,0.197l3.265-3.86c0.713-0.842,0.73-2.062,0.066-2.943c-0.63-0.835-1.293-1.654-1.993-2.452
						c-15.984-18.21-43.806-20.021-62.015-4.037c-1.38,1.211-2.66,2.493-3.847,3.833c-0.889,1.003-0.774,2.542,0.267,3.387
						l3.827,3.107c0.968,0.786,2.378,0.672,3.207-0.26C1237.916,420.863,1238.869,419.905,1239.899,419z"/>
					<path style="fill:#91B3FA;" d="M1223.56,400.386c24.503-21.507,61.932-19.071,83.439,5.431
						c0.006,0.007,0.012,0.014,0.019,0.021c0.94,1.073,2.604,1.081,3.526-0.008l3.203-3.786c-0.009-1.171-0.015-1.925-0.024-3.097
						c-25.068-27.965-68.195-30.602-96.487-5.768c-2.47,2.168-4.734,4.482-6.812,6.908c-0.845,0.988-0.681,2.486,0.328,3.305
						l3.818,3.099c0.972,0.789,2.404,0.682,3.22-0.267C1219.551,404.175,1221.47,402.22,1223.56,400.386z"/>
					<path style="fill:#91B3FA;" d="M1207.22,381.771c33.861-29.722,85.116-27.2,115.956,5.074c0.968,1.013,2.589,0.992,3.494-0.078
						l3.178-3.757c0.771-0.912,0.743-2.273-0.087-3.133c-34.4-35.631-91.258-38.323-128.867-5.312
						c-3.532,3.101-6.757,6.422-9.702,9.91c-0.839,0.994-0.677,2.493,0.334,3.313l3.813,3.095c0.995,0.807,2.437,0.651,3.264-0.326
						C1201.222,387.466,1204.086,384.522,1207.22,381.771z"/>
				</g>
				
					<ellipse transform="matrix(0.9732 -0.2298 0.2298 0.9732 -66.8099 302.0626)" style="fill:#91B3FA;" cx="1263.748" cy="437.935" rx="16.055" ry="16.055"/>
			</g>
		</g>
	</g>
</g>
</svg>
