<?xml version="1.0" encoding="utf-8"?>
<!-- Generator: Adobe Illustrator 27.5.0, SVG Export Plug-In . SVG Version: 6.00 Build 0)  -->
<svg version="1.1" xmlns="http://www.w3.org/2000/svg" xmlns:xlink="http://www.w3.org/1999/xlink" x="0px" y="0px"
	 viewBox="0 0 500 500" style="enable-background:new 0 0 500 500;" xml:space="preserve">
<g id="Background_Complete">
	<g>
		<path style="fill:#E0E0E0;" d="M475.096,133.898c-2.712-0.596-5.609,0.214-7.901,1.78c-2.292,1.566-4.033,3.829-5.396,6.248
			c-2.637,4.68-3.335,10.824-3.188,16.193c5.941-0.546,10.788-5.486,13.089-8.146C475.339,145.769,479.359,135.961,475.096,133.898"
			/>
		<path style="fill:#E0E0E0;" d="M449.216,162.198c2.35-2.023,3.272-5.441,2.604-8.469c-0.668-3.029-2.778-5.632-5.423-7.252
			c-1.223-0.749-2.719-1.316-4.073-0.842c-1.265,0.444-2.095,1.739-2.288,3.065c-0.193,1.327,0.158,2.676,0.661,3.919
			C442.422,156.882,444.873,160.689,449.216,162.198"/>
		<g>
			<path style="fill:#EBEBEB;" d="M444.58,179.426c-0.033-0.014,0.093-0.395,0.348-1.072c0.299-0.779,0.665-1.733,1.096-2.857
				c0.902-2.409,2.16-5.773,2.675-9.655c0.511-3.88-0.09-7.464-1.069-9.819c-0.958-2.38-2.085-3.57-1.994-3.635
				c0.022-0.019,0.315,0.259,0.767,0.831c0.455,0.569,1.032,1.465,1.566,2.661c1.093,2.376,1.771,6.06,1.247,10.028
				c-0.527,3.963-1.858,7.343-2.849,9.725c-0.504,1.194-0.94,2.146-1.252,2.8C444.803,179.086,444.613,179.44,444.58,179.426z"/>
		</g>
		<g>
			<path style="fill:#EBEBEB;" d="M471.375,141.096c0.014,0.011-0.073,0.153-0.253,0.412c-0.219,0.305-0.485,0.674-0.804,1.119
				c-0.761,1.028-1.779,2.402-3.015,4.071c-2.551,3.433-6.058,8.187-9.859,13.49c-3.8,5.306-7.173,10.157-9.602,13.677
				c-1.182,1.707-2.156,3.113-2.884,4.164c-0.318,0.446-0.582,0.816-0.801,1.122c-0.188,0.253-0.294,0.382-0.309,0.372
				c-0.015-0.01,0.062-0.157,0.221-0.429c0.196-0.321,0.434-0.708,0.72-1.176c0.633-1.016,1.571-2.471,2.748-4.258
				c2.353-3.575,5.681-8.463,9.484-13.775c3.804-5.308,7.361-10.031,9.989-13.409c1.313-1.689,2.39-3.046,3.148-3.972
				c0.35-0.421,0.642-0.771,0.882-1.06C471.245,141.206,471.36,141.085,471.375,141.096z"/>
		</g>
		<path style="fill:#E0E0E0;" d="M453.538,168.632c4.913-4.314,11.992-6.025,18.333-4.429c1.615,0.406,3.424,1.298,3.66,2.946
			c0.236,1.651-1.26,3.019-2.719,3.828c-6.069,3.366-14.187,2.557-19.473-1.939"/>
		<g>
			<path style="fill:#EBEBEB;" d="M468.053,167.413c-0.016,0.106-1.528-0.19-3.981-0.133c-1.226,0.017-2.68,0.184-4.266,0.5
				c-1.579,0.35-3.285,0.87-4.994,1.624c-1.699,0.777-3.221,1.707-4.532,2.655c-1.29,0.976-2.381,1.952-3.208,2.857
				c-1.672,1.796-2.455,3.123-2.544,3.064c-0.031-0.019,0.153-0.355,0.513-0.95c0.175-0.301,0.403-0.661,0.709-1.049
				c0.301-0.392,0.619-0.861,1.049-1.312c0.806-0.952,1.892-1.976,3.192-2.993c1.322-0.989,2.871-1.953,4.607-2.746
				c1.746-0.771,3.495-1.288,5.112-1.619c1.624-0.297,3.111-0.428,4.358-0.398c0.624-0.022,1.185,0.052,1.678,0.087
				c0.494,0.029,0.914,0.098,1.256,0.167C467.686,167.291,468.059,167.377,468.053,167.413z"/>
		</g>
	</g>
	<g>
		<path style="fill:#E0E0E0;" d="M49.283,73.175c-1.698,2.196-2.204,5.162-1.768,7.904s1.738,5.283,3.342,7.549
			c3.104,4.384,8.359,7.642,13.276,9.804c2.046-5.604-0.348-12.097-1.769-15.315C60.118,78.031,52.97,70.203,49.283,73.175"/>
		<path style="fill:#E0E0E0;" d="M63.804,108.67c-0.824-2.99-3.52-5.284-6.543-5.975c-3.024-0.691-6.279,0.104-8.874,1.802
			c-1.2,0.785-2.353,1.896-2.502,3.322c-0.14,1.333,0.676,2.638,1.793,3.379c1.117,0.741,2.487,1.001,3.825,1.078
			C56.093,112.539,60.584,111.951,63.804,108.67"/>
		<g>
			<path style="fill:#EBEBEB;" d="M77.396,120.225c-0.027,0.024-0.317-0.253-0.821-0.773c-0.577-0.604-1.283-1.342-2.114-2.213
				c-1.793-1.845-4.296-4.42-7.585-6.545c-3.289-2.121-6.786-3.109-9.333-3.23c-2.562-0.151-4.119,0.359-4.138,0.249
				c-0.008-0.028,0.369-0.174,1.079-0.338c0.709-0.168,1.766-0.306,3.075-0.279c2.616,0.028,6.235,0.99,9.598,3.16
				c3.357,2.171,5.844,4.818,7.574,6.733c0.864,0.966,1.538,1.767,1.996,2.329C77.184,119.879,77.423,120.201,77.396,120.225z"/>
		</g>
		<g>
			<path style="fill:#EBEBEB;" d="M54.2,79.617c0.016-0.008,0.107,0.131,0.264,0.404c0.182,0.329,0.403,0.727,0.668,1.206
				c0.604,1.127,1.411,2.635,2.392,4.466c2.013,3.774,4.811,8.977,7.981,14.679c3.173,5.704,6.116,10.826,8.26,14.527
				c1.038,1.799,1.893,3.28,2.532,4.388c0.267,0.478,0.489,0.875,0.672,1.203c0.149,0.278,0.219,0.429,0.204,0.438
				c-0.015,0.009-0.116-0.123-0.294-0.384c-0.206-0.314-0.455-0.695-0.755-1.153c-0.648-1.006-1.562-2.477-2.675-4.305
				c-2.226-3.655-5.223-8.754-8.398-14.462c-3.173-5.708-5.922-10.943-7.853-14.762c-0.966-1.91-1.732-3.462-2.245-4.544
				c-0.231-0.497-0.423-0.909-0.581-1.25C54.243,79.781,54.184,79.625,54.2,79.617z"/>
		</g>
		<path style="fill:#E0E0E0;" d="M71.468,107.513c-1.8-6.286-0.32-13.416,3.833-18.467c1.058-1.286,2.637-2.541,4.228-2.049
			c1.594,0.492,2.19,2.43,2.298,4.094c0.449,6.925-3.753,13.919-10.078,16.775"/>
		<g>
			<path style="fill:#EBEBEB;" d="M76.57,93.87c0.089,0.059-0.825,1.3-1.822,3.542c-0.509,1.116-0.979,2.502-1.371,4.07
				c-0.358,1.577-0.618,3.342-0.666,5.209c-0.024,1.868,0.166,3.642,0.463,5.232c0.331,1.583,0.747,2.986,1.212,4.121
				c0.909,2.279,1.774,3.554,1.683,3.61c-0.03,0.02-0.255-0.29-0.639-0.87c-0.198-0.287-0.425-0.647-0.646-1.09
				c-0.226-0.439-0.514-0.927-0.738-1.509c-0.516-1.136-0.978-2.555-1.342-4.166c-0.329-1.617-0.538-3.43-0.513-5.339
				c0.05-1.908,0.329-3.711,0.721-5.313c0.426-1.595,0.943-2.995,1.503-4.11c0.247-0.573,0.554-1.049,0.796-1.479
				c0.237-0.434,0.479-0.785,0.688-1.064C76.304,94.149,76.541,93.849,76.57,93.87z"/>
		</g>
	</g>
	<g>
		<path style="fill:#E0E0E0;" d="M160.709,477.768c2.594,0.99,5.579,0.616,8.077-0.595c2.498-1.211,4.554-3.193,6.258-5.384
			c3.298-4.24,4.895-10.213,5.541-15.546c-5.956-0.336-11.479,3.835-14.147,6.126C162.221,465.991,156.797,475.099,160.709,477.768"
			/>
		<path style="fill:#E0E0E0;" d="M190.481,453.595c-2.623,1.655-4.039,4.899-3.825,7.993c0.214,3.094,1.917,5.98,4.294,7.972
			c1.099,0.921,2.495,1.703,3.904,1.434c1.317-0.252,2.329-1.411,2.715-2.694c0.386-1.284,0.238-2.67-0.076-3.974
			C196.416,459.855,194.554,455.727,190.481,453.595"/>
		<g>
			<path style="fill:#EBEBEB;" d="M197.607,437.239c0.031,0.019-0.15,0.377-0.502,1.009c-0.411,0.727-0.914,1.616-1.506,2.664
				c-1.247,2.25-2.988,5.391-4.07,9.155c-1.078,3.762-1.012,7.395-0.391,9.869c0.597,2.496,1.536,3.839,1.436,3.889
				c-0.024,0.016-0.273-0.302-0.636-0.935c-0.366-0.63-0.804-1.602-1.157-2.863c-0.731-2.512-0.858-6.254,0.246-10.102
				c1.106-3.842,2.921-6.988,4.253-9.198c0.675-1.106,1.246-1.984,1.651-2.584C197.337,437.543,197.577,437.221,197.607,437.239z"/>
		</g>
		<g>
			<path style="fill:#EBEBEB;" d="M165.452,471.197c-0.012-0.013,0.095-0.14,0.311-0.37c0.262-0.27,0.579-0.596,0.961-0.988
				c0.904-0.904,2.114-2.114,3.582-3.582c3.029-3.019,7.2-7.204,11.741-11.888c4.541-4.688,8.592-8.988,11.515-12.111
				c1.421-1.514,2.592-2.761,3.467-3.693c0.38-0.394,0.696-0.721,0.957-0.991c0.223-0.223,0.347-0.334,0.36-0.322
				s-0.084,0.147-0.282,0.392c-0.241,0.288-0.533,0.637-0.885,1.057c-0.776,0.911-1.918,2.212-3.346,3.806
				c-2.854,3.189-6.867,7.533-11.412,12.225c-4.545,4.689-8.76,8.836-11.857,11.789c-1.548,1.477-2.813,2.66-3.699,3.465
				c-0.409,0.365-0.748,0.668-1.029,0.918C165.596,471.108,165.464,471.21,165.452,471.197z"/>
		</g>
		<path style="fill:#E0E0E0;" d="M187.155,446.594c-5.496,3.542-12.75,4.19-18.786,1.677c-1.537-0.64-3.195-1.789-3.185-3.454
			c0.01-1.668,1.692-2.8,3.254-3.385c6.499-2.434,14.409-0.437,18.974,4.79"/>
		<g>
			<path style="fill:#EBEBEB;" d="M172.619,445.659c0.031-0.102,1.483,0.414,3.918,0.719c1.215,0.164,2.678,0.213,4.293,0.134
				c1.613-0.114,3.378-0.376,5.179-0.87c1.795-0.518,3.438-1.214,4.874-1.957c1.42-0.775,2.642-1.579,3.594-2.352
				c1.919-1.53,2.889-2.727,2.968-2.656c0.028,0.023-0.203,0.328-0.648,0.863c-0.217,0.272-0.496,0.595-0.856,0.933
				c-0.355,0.343-0.739,0.76-1.231,1.143c-0.938,0.823-2.162,1.676-3.599,2.49c-1.453,0.783-3.127,1.508-4.962,2.037
				c-1.84,0.505-3.647,0.759-5.295,0.848c-1.65,0.054-3.14-0.035-4.369-0.249c-0.62-0.071-1.165-0.226-1.647-0.334
				c-0.484-0.102-0.89-0.231-1.217-0.35C172.964,445.833,172.608,445.693,172.619,445.659z"/>
		</g>
	</g>
	<g>
		
			<ellipse transform="matrix(0.5616 -0.8274 0.8274 0.5616 -128.1988 453.0821)" style="fill:#EBEBEB;" cx="363.448" cy="347.515" rx="9.994" ry="9.994"/>
		<path style="fill:#EBEBEB;" d="M401.415,327.475c0.008,5.52-4.461,10-9.98,10.008c-5.52,0.008-10-4.461-10.008-9.98
			c-0.008-5.52,4.461-10,9.98-10.008S401.407,321.955,401.415,327.475z"/>
		<path style="fill:#EBEBEB;" d="M401.473,369.836c0.008,6.005-4.459,10.88-9.979,10.887s-10.001-4.854-10.009-10.86
			c-0.008-6.005,4.459-10.88,9.979-10.887S401.465,363.831,401.473,369.836z"/>
		<g>
			<path style="fill:#EBEBEB;" d="M388.53,368.568c-0.427,0.629-7.075-3.146-14.846-8.43c-7.774-5.285-13.728-10.078-13.3-10.707
				c0.427-0.628,7.073,3.146,14.847,8.431C383.002,363.146,388.957,367.94,388.53,368.568z"/>
		</g>
		<g>
			<path style="fill:#EBEBEB;" d="M389.328,326.789c0.465,0.601-4.667,5.357-11.462,10.621c-6.797,5.267-12.683,9.048-13.149,8.447
				c-0.465-0.6,4.666-5.355,11.463-10.622C382.976,329.97,388.863,326.188,389.328,326.789z"/>
		</g>
	</g>
	<g>
		<g>
			<path style="fill:#E0E0E0;" d="M333.811,231.024c0.144,0,0.26,2.687,0.26,6c0,3.314-0.117,6-0.26,6s-0.26-2.686-0.26-6
				C333.551,233.711,333.668,231.024,333.811,231.024z"/>
		</g>
		<g>
			<path style="fill:#E0E0E0;" d="M333.811,207.024c0.144,0,0.26,2.687,0.26,6c0,3.314-0.117,6-0.26,6s-0.26-2.686-0.26-6
				C333.551,209.711,333.668,207.024,333.811,207.024z"/>
		</g>
		<g>
			<path style="fill:#E0E0E0;" d="M333.811,183.024c0.144,0,0.26,2.687,0.26,6c0,3.314-0.117,6-0.26,6s-0.26-2.686-0.26-6
				C333.551,185.711,333.668,183.024,333.811,183.024z"/>
		</g>
		<g>
			<path style="fill:#E0E0E0;" d="M333.811,159.024c0.144,0,0.26,2.687,0.26,6c0,3.314-0.117,6-0.26,6s-0.26-2.686-0.26-6
				C333.551,161.711,333.668,159.024,333.811,159.024z"/>
		</g>
		<g>
			<path style="fill:#E0E0E0;" d="M333.811,135.024c0.144,0,0.26,2.687,0.26,6c0,3.314-0.117,6-0.26,6s-0.26-2.686-0.26-6
				C333.551,137.711,333.668,135.024,333.811,135.024z"/>
		</g>
		<g>
			<path style="fill:#E0E0E0;" d="M326.981,117.854c0-0.144,2.686-0.26,6-0.26c0.284,0.001,0.563,0.002,0.83,0.003l0.26,0.001
				l-0.001,0.257c-0.018,2.925-0.126,5.17-0.258,5.17c-0.131,0-0.24-2.245-0.258-5.17l0.258,0.258
				c-0.268,0.001-0.546,0.002-0.83,0.003C329.668,118.115,326.981,117.998,326.981,117.854z"/>
		</g>
		<g>
			<path style="fill:#E0E0E0;" d="M302.981,117.854c0-0.144,2.686-0.26,6-0.26c3.314,0,6,0.117,6,0.26c0,0.144-2.686,0.26-6,0.26
				C305.668,118.115,302.981,117.998,302.981,117.854z"/>
		</g>
		<g>
			<path style="fill:#E0E0E0;" d="M292.546,104.289c0.144,0,0.26,2.687,0.26,6c0,3.314-0.117,6-0.26,6s-0.26-2.686-0.26-6
				C292.286,106.976,292.403,104.289,292.546,104.289z"/>
		</g>
		<g>
			<path style="fill:#E0E0E0;" d="M292.546,85.029c0.144,0,0.26,1.625,0.26,3.63c0,2.005-0.117,3.631-0.26,3.631
				s-0.26-1.625-0.26-3.631C292.286,86.654,292.403,85.029,292.546,85.029z"/>
		</g>
	</g>
	<g>
		<g>
			<path style="fill:#E0E0E0;" d="M147.805,357.245c0-0.144,1.343-0.26,2.999-0.26c1.657,0,2.999,0.117,2.999,0.26
				s-1.343,0.26-2.999,0.26C149.148,357.505,147.805,357.389,147.805,357.245z"/>
		</g>
		<g>
			<path style="fill:#E0E0E0;" d="M121.635,357.245c0-0.144,2.929-0.26,6.541-0.26c3.613,0,6.542,0.117,6.542,0.26
				s-2.928,0.26-6.542,0.26C124.564,357.505,121.635,357.389,121.635,357.245z"/>
		</g>
		<g>
			<path style="fill:#E0E0E0;" d="M95.466,357.245c0-0.144,2.929-0.26,6.541-0.26c3.614,0,6.542,0.117,6.542,0.26
				s-2.928,0.26-6.542,0.26C98.395,357.505,95.466,357.389,95.466,357.245z"/>
		</g>
		<g>
			<path style="fill:#E0E0E0;" d="M76.391,351.245c0.144,0,0.26,2.686,0.26,5.999c0.056,0.058-0.493-0.492-0.259-0.259h0.003H76.4
				h0.01h0.019h0.039h0.077l0.154,0l0.305,0.001c0.201,0.001,0.399,0.003,0.596,0.004c0.383,0.005,0.757,0.01,1.126,0.015
				c0.656,0.019,1.29,0.038,1.907,0.056c1.086,0.047,1.757,0.112,1.757,0.184s-0.671,0.137-1.757,0.184
				c-0.617,0.018-1.251,0.037-1.907,0.056c-0.369,0.005-0.743,0.01-1.126,0.015c-0.197,0.001-0.395,0.003-0.596,0.004l-0.305,0.001
				l-0.154,0h-0.077h-0.039H76.41H76.4h-0.005h-0.003c0.232,0.233-0.318-0.317-0.262-0.262
				C76.131,353.931,76.247,351.245,76.391,351.245z"/>
		</g>
		<g>
			<path style="fill:#E0E0E0;" d="M76.391,327.98c0.144,0,0.26,2.604,0.26,5.816c0,3.213-0.117,5.816-0.26,5.816
				c-0.144,0-0.26-2.604-0.26-5.816C76.131,330.585,76.247,327.98,76.391,327.98z"/>
		</g>
		<g>
			<path style="fill:#E0E0E0;" d="M76.391,304.716c0.144,0,0.26,2.604,0.26,5.816c0,3.213-0.117,5.816-0.26,5.816
				c-0.144,0-0.26-2.604-0.26-5.816C76.131,307.32,76.247,304.716,76.391,304.716z"/>
		</g>
		<g>
			<path style="fill:#E0E0E0;" d="M76.391,287.083c0.144,0,0.26,1.343,0.26,3c0,1.657-0.117,3-0.26,3c-0.144,0-0.26-1.343-0.26-3
				C76.131,288.427,76.247,287.083,76.391,287.083z"/>
		</g>
	</g>
	<path style="fill:#F5F5F5;" d="M121.871,280.161c1.341-3.943-0.065-8.662-3.347-11.227c-1.651-1.29-3.715-1.988-5.806-2.077
		c-3.245-0.137-6.065-2.05-7.377-5.021c-2.129-4.82-6.363-8.75-11.456-10.177c-7.276-2.039-15.706,1.197-19.75,7.581
		c-1.118,1.766-2.024,3.833-3.848,4.854c-2.325,1.302-5.193,0.422-7.852,0.254c-7.887-0.497-15.357,7.92-14.946,15.812H121.871z"/>
	<path style="fill:#F5F5F5;" d="M325.554,85.029c1.342-3.943-0.065-8.662-3.347-11.227c-1.651-1.29-3.716-1.988-5.806-2.077
		c-3.245-0.137-6.065-2.05-7.377-5.021c-2.129-4.82-6.363-8.75-11.456-10.177c-7.276-2.039-15.706,1.197-19.75,7.581
		c-1.118,1.766-2.024,3.833-3.848,4.854c-2.325,1.302-5.193,0.422-7.852,0.254c-7.887-0.497-15.357,7.92-14.946,15.812H325.554z"/>
</g>
<g id="Background_Simple" style="display:none;">
	<path style="display:inline;fill:#F5F5F5;" d="M446.995,115.563c27.152,61.708,14.727,128.509-23.069,184.336
		c-37.796,55.827-100.676,91.971-166.796,105.133c-47.199,9.395-97.976,7.482-141.102-13.875
		C72.902,369.8,38.991,326.831,36.405,278.775c-0.977-18.151,2.873-37.425,14.986-50.979c19.341-21.641,52.36-22.403,81.371-21.51
		c29.011,0.893,62.008,0.216,81.443-21.34c14.934-16.563,17.133-40.589,25.002-61.456c13.381-35.481,45.663-63.186,82.764-71.028
		c36.256-7.663,75.979,3.881,102.589,29.637c1.14,1.104,2.331,2.152,3.528,3.194C431.257,88.052,441.833,103.831,446.995,115.563z"
		/>
</g>
<g id="Connectivity">
	<g>
		<g>
			
				<ellipse transform="matrix(0.7071 -0.7071 0.7071 0.7071 -38.1801 342.6492)" style="fill:#E0E0E0;" cx="394.524" cy="217.412" rx="66.797" ry="66.797"/>
		</g>
		<path style="fill:#E0E0E0;" d="M311.982,394.106c-1.586,40.175-31.172,73.42-71.37,74.202
			c-40.198,0.782-73.42-31.172-74.201-71.37c-0.782-40.199,31.283-77.285,71.37-74.202
			C280.538,326.024,313.429,357.452,311.982,394.106z"/>
		
			<ellipse transform="matrix(0.7071 -0.7071 0.7071 0.7071 -71.5037 135.0843)" style="fill:#E0E0E0;" cx="127.309" cy="153.855" rx="68.111" ry="68.112"/>
		<g>
			<path style="fill:#E0E0E0;" d="M385.898,233.157c1.057,0.975-24.753,30.68-57.642,66.341
				c-32.9,35.672-60.419,63.791-61.476,62.815c-1.057-0.974,24.748-30.674,57.648-66.346
				C357.317,260.307,384.842,232.182,385.898,233.157z"/>
		</g>
		<g>
			<path style="fill:#E0E0E0;" d="M372.21,184.72c-0.306,1.406-45.789-7.298-101.577-19.436
				c-55.807-12.142-100.785-23.122-100.479-24.527c0.306-1.405,45.779,7.296,101.586,19.439
				C327.529,172.334,372.516,183.315,372.21,184.72z"/>
		</g>
		<g>
			<path style="fill:#E0E0E0;" d="M206.401,349.255c-0.597,0.37-7.671-9.748-18.385-26.566
				c-10.715-16.815-25.012-40.367-40.066-66.805c-15.051-26.451-28.004-50.771-36.991-68.57
				c-8.991-17.799-14.078-29.045-13.454-29.369c0.652-0.34,6.891,10.299,16.7,27.631c9.802,17.347,23.328,41.286,38.271,67.732
				c15.105,26.342,28.781,50.193,38.692,67.477C201.062,338.07,207.026,348.868,206.401,349.255z"/>
		</g>
	</g>
</g>
<g id="Character_3">
	<g>
		<path style="fill:#263238;" d="M419.596,125.33c0.348,5.707,0.74,7.439,2.856,11.99c1.255,2.699,3.021,5.2,3.718,8.093
			c0.662,2.75,0.305,5.651,0.813,8.434c0.828,4.542,3.84,8.32,6.102,12.344c2.263,4.025,3.788,9.118,1.541,13.152l-23.135-2.732
			l-1.631-28.723L419.596,125.33z"/>
		<path style="fill:#263238;" d="M373.599,115.592c-2.995,6.354,1.169,12.708-1.826,19.061c-1.484,3.149-2.979,6.326-3.771,9.716
			c-0.714,3.054-0.857,6.272-2.103,9.151c-1.984,4.588-6.49,7.69-8.577,12.232c-3.092,6.73,0.193,15.161,6.103,19.624
			c5.909,4.463,13.754,5.576,21.141,5.059c4.478-0.313,9.019-1.207,12.873-3.51c3.854-2.302,6.944-6.195,7.431-10.657"/>
		<path style="fill:#263238;" d="M407.906,104.281c14.889,6.6,17.848,31.052,17.922,34.345c0.089,3.927,2.18,4.74,4.79,6.793
			c2.61,2.053,5.137,4.541,5.859,7.728c0.568,2.508-0.028,5.282,1.173,7.571c1.434,2.733,4.828,3.748,7.463,5.435
			c4.978,3.188,7.435,9.184,7.71,14.973c0.275,5.789-1.316,11.49-2.894,17.079c-0.625,2.216-1.404,4.637-3.413,5.846
			c-1.549,0.932-3.487,0.921-5.308,0.88c-9.425-0.21-18.849-0.421-28.274-0.631c-7.211-0.161-14.614-0.359-21.279-3.039
			c-5.417-2.178-10.166-6.021-13.069-10.971c-2.903-4.951-3.877-11.004-2.354-16.506c1.175-4.242,3.75-8.073,4.494-12.406
			c0.921-5.365-3.578-7.661-5.208-12.865c-1.631-5.204-2.978-17.687-0.744-22.675"/>
		<path style="fill:#E8505B;" d="M424.924,239.101l-4.65-14.902l-0.678,22.753c0,0,6.031,15.545,10.625,27.426
			c-9.223,5.503-19.846,8.97-31.303,9.693c-14.247,0.899-27.76-2.553-39.257-9.2l7.161-25.729l-3.413-29.099l-9.447,13.51
			l-20.152-19.481c0,0,14.751-27.256,16.58-29.743c11.663-15.855,31.812-15.476,31.812-15.476l28.506,1.579
			c0,0,16.03-0.897,26.559,11.788c0,0,10.291,15.707,18.744,54.472L424.924,239.101z"/>
		<g>
			<path style="fill:#FAFAFA;" d="M439.179,186.483c0.001,0.008-0.14,0.03-0.414,0.065c-0.273,0.045-0.685,0.058-1.213,0.165
				c-1.063,0.161-2.624,0.523-4.52,1.303c-1.875,0.806-4.104,2.056-6.215,4.08c-1.052,1.009-2.076,2.2-2.97,3.593
				c-0.872,1.395-1.732,2.97-2.067,4.765c-0.163,0.89-0.174,1.841,0.09,2.741c0.267,0.889,0.848,1.717,1.64,2.276
				c0.78,0.567,1.839,0.804,2.766,0.436c0.93-0.349,1.616-1.237,1.919-2.232c0.314-1.004,0.264-2.128-0.22-3.109
				c-0.463-0.991-1.245-1.84-2.166-2.518c-1.857-1.355-4.177-2.191-6.603-2.457c-2.435-0.278-4.983,0.001-7.477,0.666
				c-2.488,0.683-4.999,1.62-7.284,3.04c-2.274,1.421-4.436,3.218-6.028,5.488c-0.767,1.134-1.407,2.431-1.439,3.791
				c-0.012,0.672,0.146,1.346,0.508,1.916c0.354,0.574,0.873,1.046,1.457,1.426l-0.047-0.024c0.661,0.246,1.399,0.357,2.037,0.085
				c0.64-0.261,1.126-0.852,1.453-1.524c0.653-1.364,0.838-2.981,0.843-4.558c-0.017-1.558-0.195-3.139-0.747-4.56
				c-0.539-1.43-1.44-2.707-2.532-3.751c-2.195-2.106-5.106-3.323-8.035-3.621c-2.943-0.321-5.882,0.142-8.612,0.97
				c-2.707,0.835-5.419,1.939-7.158,4.008c-0.824,1.024-1.441,2.295-1.278,3.568c0.136,1.261,0.775,2.48,1.743,3.251
				c0.48,0.385,1.047,0.654,1.635,0.714c0.586,0.061,1.181-0.088,1.684-0.405c1.022-0.629,1.49-1.852,1.594-3.018
				c0.11-1.183-0.048-2.378-0.386-3.482c-0.18-0.551-0.42-1.084-0.623-1.619c-0.111-0.264-0.2-0.537-0.327-0.791l-0.404-0.746
				c-1.013-2.015-2.412-3.706-3.871-5.158c-2.978-2.873-6.357-4.713-9.494-5.684c-3.14-0.985-6.013-1.259-8.325-1.104
				c-2.315,0.154-4.079,0.591-5.238,0.969c-0.559,0.201-0.995,0.357-1.311,0.471c-0.297,0.104-0.455,0.145-0.455,0.145
				s0.143-0.074,0.434-0.193c0.313-0.126,0.744-0.299,1.298-0.521c1.155-0.413,2.925-0.886,5.26-1.072
				c2.332-0.187,5.239,0.058,8.425,1.029c3.183,0.957,6.62,2.795,9.663,5.698c1.492,1.467,2.925,3.182,3.969,5.233l0.415,0.76
				c0.131,0.258,0.223,0.537,0.338,0.806c0.211,0.547,0.456,1.085,0.645,1.656c0.356,1.151,0.528,2.389,0.416,3.648
				c-0.104,1.231-0.601,2.612-1.787,3.352c-0.567,0.362-1.276,0.549-1.966,0.477c-0.693-0.068-1.341-0.379-1.876-0.805
				c-1.076-0.859-1.766-2.165-1.924-3.563c-0.085-0.696,0.027-1.445,0.297-2.094c0.255-0.66,0.627-1.276,1.078-1.825
				c1.856-2.208,4.645-3.325,7.384-4.18c2.774-0.846,5.777-1.328,8.812-1.001c3.023,0.305,6.05,1.56,8.339,3.755
				c1.141,1.089,2.089,2.428,2.659,3.938c0.586,1.515,0.762,3.135,0.782,4.744c-0.009,1.631-0.186,3.295-0.898,4.79
				c-0.357,0.733-0.915,1.442-1.722,1.774c-0.809,0.341-1.693,0.191-2.421-0.082l-0.025-0.009l-0.022-0.015
				c-0.631-0.411-1.212-0.934-1.618-1.592c-0.415-0.652-0.599-1.438-0.583-2.193c0.042-1.53,0.736-2.892,1.533-4.073
				c1.658-2.356,3.862-4.174,6.186-5.624c2.345-1.451,4.892-2.395,7.423-3.083c2.54-0.67,5.147-0.952,7.652-0.659
				c2.5,0.283,4.882,1.146,6.814,2.565c0.959,0.712,1.792,1.615,2.29,2.69c0.522,1.067,0.577,2.328,0.227,3.413
				c-0.336,1.084-1.096,2.081-2.173,2.482c-1.072,0.419-2.279,0.13-3.128-0.495c-0.866-0.619-1.484-1.512-1.772-2.486
				c-0.28-0.975-0.258-1.979-0.083-2.908c0.364-1.872,1.251-3.459,2.147-4.872c0.92-1.409,1.969-2.609,3.045-3.622
				c2.158-2.031,4.427-3.27,6.331-4.056c1.925-0.76,3.505-1.094,4.578-1.224C438.612,186.48,439.179,186.483,439.179,186.483z"/>
		</g>
		<g>
			<path style="fill:#FAFAFA;" d="M451.261,219.065c0.025,0.064-1.003,0.291-2.587,1.25c-1.563,0.936-3.714,2.734-5.112,5.727
				c-0.357,0.739-0.619,1.561-0.824,2.429c-0.22,0.865-0.281,1.794-0.006,2.686c0.132,0.438,0.371,0.85,0.727,1.104
				c0.359,0.239,0.842,0.312,1.261,0.139c0.854-0.358,1.425-1.361,1.522-2.383c0.274-2.079-0.986-4.395-3.039-5.401
				c-2.067-1.018-4.77-0.732-6.794,0.64c-2.05,1.386-3.326,3.643-3.846,5.907c-0.26,1.121-0.287,2.325,0.267,3.239
				c0.53,0.918,1.657,1.458,2.569,1.013c0.915-0.413,1.466-1.413,1.456-2.382c0.014-0.983-0.365-1.93-0.862-2.732
				c-1.004-1.622-2.533-2.719-4.055-3.267c-1.533-0.559-3.065-0.566-4.323-0.26c-1.263,0.306-2.274,0.847-3.007,1.397
				c-1.478,1.114-1.938,2.094-1.995,2.044c-0.008-0.005,0.02-0.063,0.082-0.173c0.064-0.109,0.152-0.276,0.3-0.473
				c0.282-0.403,0.75-0.974,1.49-1.559c0.732-0.588,1.757-1.174,3.06-1.519c1.296-0.345,2.904-0.367,4.515,0.196
				c1.601,0.552,3.218,1.678,4.299,3.386c0.531,0.845,0.957,1.852,0.953,2.967c0.015,1.103-0.6,2.303-1.719,2.813
				c-0.553,0.258-1.241,0.272-1.814,0.021c-0.577-0.243-1.048-0.685-1.374-1.213c-0.662-1.094-0.607-2.43-0.341-3.609
				c0.539-2.371,1.864-4.744,4.053-6.227c2.171-1.467,5.051-1.779,7.31-0.666c2.25,1.121,3.596,3.613,3.291,5.919
				c-0.128,1.133-0.733,2.288-1.835,2.75c-0.556,0.222-1.202,0.128-1.679-0.201c-0.472-0.343-0.739-0.849-0.885-1.342
				c-0.3-0.99-0.208-2.021,0.026-2.903c0.221-0.895,0.505-1.74,0.882-2.495c1.484-3.06,3.724-4.848,5.343-5.746
				C450.214,219.22,451.261,219.065,451.261,219.065z"/>
		</g>
		<g>
			<path style="fill:#FAFAFA;" d="M419.711,233.448c-0.003,0.009-0.087-0.006-0.248-0.044c-0.19-0.047-0.424-0.105-0.712-0.177
				c-0.629-0.137-1.557-0.35-2.773-0.467c-2.404-0.251-6.057-0.22-10.113,1.414c-1.009,0.401-2.032,0.915-3.034,1.54
				c-0.989,0.634-1.961,1.419-2.643,2.464c-0.69,1.033-0.969,2.377-0.505,3.618c0.218,0.607,0.588,1.183,1.119,1.557
				c0.52,0.386,1.204,0.528,1.852,0.4c1.305-0.285,2.39-1.545,2.569-2.948c0.2-1.436-0.341-2.932-1.158-4.221
				c-1.657-2.605-4.434-4.622-7.619-5.41c-3.193-0.801-6.569-0.173-9.234,1.387c-1.326,0.776-2.538,1.781-3.402,2.951
				c-0.407,0.604-0.73,1.267-0.883,1.955c-0.16,0.679-0.151,1.407,0.165,1.974c0.298,0.579,0.899,0.961,1.527,1.018
				c0.637,0.049,1.292-0.161,1.816-0.526c1.109-0.716,1.458-2.098,1.347-3.317c-0.104-1.244-0.588-2.398-1.164-3.418
				c-0.601-1.009-1.3-1.909-2.087-2.651c-1.57-1.491-3.35-2.422-4.975-2.977c-1.635-0.554-3.139-0.708-4.352-0.68
				c-2.446,0.049-3.709,0.695-3.728,0.602c-0.003-0.008,0.075-0.042,0.23-0.1c0.186-0.066,0.414-0.146,0.695-0.246
				c0.62-0.185,1.561-0.406,2.797-0.458c1.232-0.059,2.768,0.067,4.447,0.606c1.668,0.541,3.504,1.469,5.138,2.987
				c0.819,0.755,1.551,1.677,2.182,2.718c0.605,1.052,1.122,2.245,1.246,3.583c0.063,0.664,0.006,1.365-0.225,2.032
				c-0.222,0.671-0.689,1.287-1.291,1.698c-0.597,0.419-1.342,0.673-2.119,0.618c-0.778-0.066-1.535-0.54-1.906-1.257
				c-0.395-0.712-0.392-1.562-0.22-2.311c0.168-0.764,0.513-1.476,0.951-2.13c0.939-1.276,2.168-2.288,3.555-3.109
				c2.765-1.628,6.281-2.288,9.615-1.452c3.318,0.822,6.199,2.918,7.926,5.643c0.852,1.353,1.445,2.955,1.22,4.563
				c-0.224,1.601-1.414,3.005-2.967,3.349c-0.774,0.153-1.608-0.028-2.222-0.489c-0.626-0.449-1.036-1.108-1.277-1.787
				c-0.235-0.685-0.307-1.413-0.193-2.11c0.108-0.706,0.412-1.328,0.767-1.894c0.744-1.119,1.768-1.924,2.791-2.568
				c1.035-0.633,2.078-1.144,3.112-1.542c4.148-1.619,7.853-1.588,10.273-1.273C418.452,232.88,419.711,233.448,419.711,233.448z"/>
		</g>
		<path style="fill:#FFBE9D;" d="M308.005,150.096c2.076,0.109,1.483,11.413,3.018,9.021c1.534-2.393-0.882-13.869,1.281-13.667
			c2.817,0.264,1.98,12.093,1.983,13.098c0.003,0.976,1.455,0.997,1.403,0.091c-0.074-1.302-0.509-14.999,2.261-14.766
			c1.536,0.129,0.977,2.873,0.977,2.873s-0.537,12.871,0.776,12.937c1.332,0.067,1.902-7.485,1.915-10.041
			c0.012-2.525,1.218-3.577,2.332-2.672c0.759,0.617,0.907,8.441,0.835,10.969c-0.071,2.528-0.389,9.464,2.546,6.1
			c2.936-3.363,6.43-4.874,7.643-4.632c1.213,0.242,1.274,2.028,0.019,2.606c-1.014,0.468-2.475,1.765-3.535,2.785
			c-0.873,0.84-1.498,1.879-2.159,2.891c-0.705,1.079-0.97,1.772-1.546,3.584l3.933,47.145l2.888-3.606l16.476,15.927l-8.598,9.892
			c-6.299,7.247-17.693,7.714-24.094,0.556c-0.233-0.261-0.457-0.529-0.673-0.804c-1.598-2.042-2.452-4.57-2.67-7.154l-5.442-61.124
			l-0.048,0.002c-0.119-6.793-1.963-11.956-2.284-15.458C306.648,150.134,307.233,150.056,308.005,150.096z"/>
		<g>
			<g>
				<g>
					<g>
						<g>
							<path style="fill:#FFBE9D;" d="M384.161,175.291c0.06-7.109-0.006-14.595-0.006-14.595s-9.141-1.627-10.9-13.597
								c-1.678-11.416,1.168-35.97,1.168-35.97l0,0c13.243-5.223,28.153-3.203,37.43,7.456l0,0l-1.442,57.732
								c-0.168,6.702-6.064,11.896-13.238,11.662h0C389.926,187.742,384.104,182.064,384.161,175.291z"/>
						</g>
						<g>
							<g>
								<path style="fill:#263238;" d="M376.911,129.983c-0.038,0.809,0.616,1.508,1.46,1.563c0.842,0.055,1.557-0.554,1.595-1.363
									c0.038-0.809-0.615-1.509-1.458-1.564C377.665,128.563,376.949,129.174,376.911,129.983z"/>
							</g>
							<g>
								<g>
									<path style="fill:#263238;" d="M374.447,128.238c0.188,0.202,1.359-0.644,3.008-0.62c1.647,0,2.848,0.862,3.029,0.662
										c0.089-0.088-0.1-0.451-0.623-0.841c-0.514-0.388-1.395-0.77-2.422-0.777c-1.027-0.006-1.896,0.362-2.396,0.743
										C374.53,127.788,374.354,128.148,374.447,128.238z"/>
								</g>
							</g>
						</g>
						<g>
							<g>
								<path style="fill:#263238;" d="M393.789,130.469c-0.038,0.809,0.616,1.508,1.46,1.563c0.842,0.055,1.557-0.554,1.595-1.363
									c0.038-0.809-0.616-1.509-1.458-1.564C394.542,129.05,393.827,129.66,393.789,130.469z"/>
							</g>
							<g>
								<g>
									<path style="fill:#263238;" d="M391.646,129.036c0.188,0.202,1.36-0.643,3.008-0.62c1.647,0,2.848,0.862,3.029,0.662
										c0.089-0.088-0.099-0.451-0.623-0.841c-0.514-0.388-1.395-0.77-2.422-0.777c-1.027-0.006-1.896,0.362-2.397,0.743
										C391.731,128.586,391.554,128.946,391.646,129.036z"/>
								</g>
							</g>
						</g>
						<g>
							<g>
								<path style="fill:#263238;" d="M385.52,141.196c0.009-0.094-1.014-0.283-2.673-0.514c-0.42-0.048-0.818-0.137-0.886-0.425
									c-0.096-0.305,0.086-0.757,0.296-1.245c0.408-1.014,0.834-2.078,1.282-3.192c1.782-4.545,3.077-8.284,2.894-8.354
									c-0.184-0.07-1.777,3.557-3.559,8.102c-0.429,1.121-0.84,2.189-1.23,3.212c-0.165,0.477-0.445,1.016-0.238,1.65
									c0.11,0.316,0.416,0.548,0.685,0.624c0.269,0.085,0.506,0.093,0.714,0.108C384.475,141.27,385.512,141.29,385.52,141.196z"
									/>
							</g>
						</g>
						<g>
							<path style="fill:#EB996E;" d="M384.155,160.696c0,0,8.032,0.611,16.051-4.084c0,0-3.977,8.163-15.923,6.907L384.155,160.696
								z"/>
						</g>
						<g>
							<path style="fill:#EB996E;" d="M386.171,145.178c0.602-0.777,1.646-1.196,2.677-1.073c0.715,0.085,1.434,0.439,1.862,1.026
								c0.428,0.588,0.509,1.416,0.108,1.967c-0.452,0.621-1.384,0.754-2.168,0.522c-0.785-0.233-1.456-0.759-2.093-1.282
								c-0.176-0.145-0.357-0.296-0.465-0.493c-0.109-0.197-0.13-0.453,0.01-0.614"/>
						</g>
						<g>
							<g>
								<path style="fill:#263238;" d="M390.359,142.393c-0.268-0.019-0.292,1.771-1.839,3.024c-1.544,1.257-3.45,1.034-3.467,1.284
									c-0.026,0.112,0.421,0.352,1.226,0.384c0.79,0.036,1.946-0.204,2.893-0.97c0.944-0.768,1.358-1.803,1.427-2.537
									C390.677,142.829,390.482,142.384,390.359,142.393z"/>
							</g>
						</g>
					</g>
					<g>
						<path style="fill:#263238;" d="M406.663,110.057c-4.372,6.235-15.947,12.647-24.236,14.135
							c0.968-1.274,6.059-4.413,7.027-5.687c-3.758,2.806-9.134,6.559-14.119,6.813c-0.589,0.03-1.228,0.029-1.713-0.267
							c-0.661-0.402-0.795-1.185-0.872-1.877c-0.322-2.921-0.12-7.929,0.345-10.828c0.465-2.899,1.797-5.783,4.312-7.726
							c3.193-2.467,7.764-3.076,12.07-3.179c3.612-0.087,7.335,0.127,10.636,1.43c3.301,1.303,6.125,3.879,6.608,6.976"/>
					</g>
					<g>
						<path style="fill:#263238;" d="M419.199,137.991c0.602-3.093,1.082-6.028,1.194-7.987c0.352-6.167-1.428-28.925-22.689-27.093
							l5.116,6.53c0,0-4.201,13.794,4.745,23.309c0,0,0.507,5.568,6.735,11.992C414.3,144.74,417.906,144.631,419.199,137.991"/>
					</g>
					<g>
						<path style="fill:#FFBE9D;" d="M407.312,131.713c1.28-0.233,2.631-0.182,3.844,0.291c1.212,0.472,2.274,1.391,2.786,2.587
							c0.513,1.199,0.445,2.598-0.011,3.82c-0.456,1.222-1.274,2.283-2.214,3.188c-0.675,0.65-1.44,1.242-2.337,1.512
							c-0.897,0.27-1.948,0.17-2.657-0.443"/>
					</g>
					<g>
						<g>
							<path style="fill:#EB996E;" d="M407.929,139.467c-0.147,0.046,0.4,0.825,1.572,0.524c0.564-0.142,1.118-0.63,1.458-1.244
								c0.342-0.624,0.567-1.309,0.661-2.113c0.09-0.797-0.082-1.646-0.514-2.256c-0.412-0.62-1.093-0.992-1.667-1.011
								c-1.201-0.041-1.583,0.787-1.447,0.813c0.095,0.098,0.566-0.325,1.351-0.127c0.752,0.147,1.48,1.194,1.303,2.483
								c-0.158,1.313-0.677,2.51-1.38,2.803C408.532,139.703,408.01,139.363,407.929,139.467z"/>
						</g>
					</g>
				</g>
			</g>
		</g>
		<g>
			<polygon style="fill:#263238;" points="422.303,253.962 422.303,248.501 383.874,248.501 372.591,199.102 315.078,199.574 
				329.025,253.962 			"/>
			<path style="fill:#FAFAFA;" d="M342.329,226.563c0.85,2.616,3.164,4.208,5.167,3.557s2.939-3.3,2.089-5.915
				c-0.85-2.616-3.164-4.209-5.167-3.557S341.479,223.948,342.329,226.563z"/>
		</g>
		<path style="fill:#FFBE9D;" d="M369.958,253.626c-0.964-1.844-1.775-3.767-2.403-5.751c-0.15-0.474-0.291-0.968-0.225-1.46
			c0.066-0.492,0.396-0.984,0.883-1.082c0.896-0.181,1.453,0.906,1.803,1.751c1.307,3.151,4.214,5.575,7.538,6.33l2.329-0.065
			l0.01-0.096l50.267-4.482l-2.397-9.972l26.611-1.977l2.425,9.819c1.312,12.262-8.559,22.835-20.882,22.367l-57.681,0.015
			c-18.347,1.201-21.796-15.017-21.796-15.017L369.958,253.626z"/>
	</g>
</g>
<g id="Character_2">
	<g>
		<g>
			<g>
				<path style="fill:#B78876;" d="M303.125,414.786l-22.721,14.021l8.333,20.052c7.679-7.138,13.807-15.907,17.841-25.745
					L303.125,414.786z"/>
				<g>
					<path style="fill:#E8505B;" d="M309.287,415.247c-2.938-7.029-13.015-30.242-21.45-38.917
						c-12.629-12.988-34.859-11.24-34.859-11.24l-28.875,1.026c0,0-10.981,1.205-21.27,6.582l-0.709,0.219l0.009,0.147
						c-8.082,4.389-19.528,14.916-30.43,25.131l13.047,12.108l14.441,12.819c0,0-0.056,0.093-0.025,0.256
						c0.151,0.777-2.346,16.287-4.557,29.688c12.688,9.843,28.697,15.577,46.002,15.24c11.019-0.214,21.416-2.871,30.691-7.435
						l1.079-12.388c0.984-11.232,1.734-25.139,1.734-25.139l4.148,10.517l30.125-15.665
						C308.709,417.223,309.008,416.239,309.287,415.247z"/>
					<g>
						<path style="fill:#263238;" d="M253.779,363.994c0.018-0.003,0.061,0.174,0.127,0.516c0.079,0.341,0.14,0.85,0.191,1.512
							c0.089,1.319-0.016,3.273-0.746,5.547c-0.745,2.248-2.168,4.825-4.566,6.91c-2.37,2.105-5.766,3.485-9.412,3.669
							c-3.648,0.16-7.159-0.896-9.718-2.769c-2.584-1.85-4.245-4.28-5.2-6.447c-0.942-2.194-1.233-4.129-1.27-5.45
							c-0.012-0.664,0-1.177,0.046-1.523c0.033-0.347,0.059-0.527,0.077-0.525c0.059,0.004-0.022,0.732,0.079,2.036
							c0.098,1.299,0.441,3.187,1.403,5.311c0.976,2.099,2.626,4.439,5.141,6.207c2.487,1.788,5.881,2.794,9.416,2.64
							c3.533-0.179,6.817-1.498,9.124-3.513c2.337-1.997,3.758-4.482,4.53-6.665c0.756-2.206,0.918-4.117,0.892-5.421
							C253.87,364.721,253.72,364.003,253.779,363.994z"/>
					</g>
					<g>
						<path style="fill:#263238;" d="M281.276,370.258c0.008,0.064-0.769,0.033-2.044,0.484c-1.268,0.429-3.006,1.478-4.474,3.393
							c-1.498,1.893-2.461,4.689-2.841,7.86c-0.201,1.588-0.287,3.273-0.346,5.025c-0.072,1.751-0.102,3.565-0.123,5.423
							c-0.057,7.437,0.384,14.163,0.856,19.013c0.227,2.427,0.47,4.385,0.619,5.74c0.072,0.63,0.131,1.146,0.179,1.561
							c0.035,0.358,0.045,0.547,0.027,0.55c-0.018,0.003-0.062-0.181-0.131-0.534c-0.073-0.411-0.164-0.923-0.276-1.548
							c-0.212-1.349-0.511-3.303-0.785-5.73c-0.566-4.85-1.068-11.595-1.011-19.056c0.022-1.864,0.055-3.684,0.134-5.44
							c0.067-1.755,0.163-3.455,0.38-5.067c0.411-3.216,1.439-6.097,3.026-8.024c1.552-1.947,3.38-2.979,4.7-3.359
							C280.498,370.148,281.276,370.258,281.276,370.258z"/>
					</g>
					<g>
						<path style="fill:#263238;" d="M212.55,368.382c0.017,0.005-0.026,0.199-0.123,0.562c-0.118,0.417-0.267,0.939-0.449,1.58
							c-0.42,1.438-0.993,3.401-1.692,5.797c-1.416,4.898-3.286,11.689-5.114,19.249c-1.824,7.564-3.26,14.46-4.235,19.465
							c-0.471,2.451-0.857,4.46-1.14,5.93c-0.13,0.653-0.236,1.186-0.321,1.611c-0.079,0.368-0.129,0.559-0.147,0.556
							c-0.018-0.003-0.002-0.2,0.043-0.573c0.059-0.429,0.134-0.968,0.225-1.628c0.203-1.413,0.535-3.451,0.978-5.964
							c0.883-5.026,2.264-11.945,4.091-19.519c1.831-7.57,3.76-14.356,5.268-19.232c0.753-2.438,1.388-4.403,1.852-5.753
							c0.22-0.629,0.4-1.142,0.543-1.551C212.456,368.559,212.532,368.377,212.55,368.382z"/>
					</g>
					<g>
						<path style="fill:#263238;" d="M308.72,410.421c0.02,0.03-0.401,0.341-1.178,0.879c-0.776,0.539-1.914,1.295-3.332,2.212
							c-2.836,1.834-6.807,4.285-11.278,6.848c-4.474,2.562-8.597,4.749-11.613,6.269c-1.508,0.76-2.736,1.36-3.592,1.757
							c-0.856,0.399-1.337,0.604-1.353,0.572c-0.016-0.032,0.434-0.299,1.262-0.753c0.915-0.496,2.096-1.135,3.514-1.903
							c2.969-1.602,7.058-3.836,11.524-6.395c4.464-2.559,8.459-4.957,11.342-6.709c1.379-0.835,2.528-1.531,3.418-2.07
							C308.243,410.645,308.7,410.391,308.72,410.421z"/>
					</g>
					<g>
						<path style="fill:#263238;" d="M200.685,414.812c-0.091,0.112-5.768-4.364-12.68-9.995
							c-6.914-5.633-12.443-10.288-12.352-10.399c0.091-0.111,5.767,4.363,12.681,9.996
							C195.246,410.044,200.776,414.7,200.685,414.812z"/>
					</g>
					<path style="opacity:0.2;" d="M271.166,394.489l11.305,37.186l-4.207,2.188l-4.148-10.517
						C274.117,423.345,269.855,401.253,271.166,394.489z"/>
					<g style="opacity:0.2;">
						<path d="M213.774,368.405c-6.093,3.213,9.178,10.943,16.076,10.734l-5.009-13.215
							C224.841,365.923,215.819,367.327,213.774,368.405z"/>
					</g>
					<polygon style="opacity:0.2;fill:#FFFFFF;" points="252.663,422.33 216.48,422.464 218.859,409.146 255.337,408.436 					"/>
				</g>
				<g>
					<path style="fill:#263238;" d="M249.198,321.09c-0.283,1.001,0.084,2.155,0.894,2.809c0.81,0.654,2.015,0.769,2.934,0.28
						c1.746-0.928,1.922-3.365,1.537-5.304c-0.385-1.939-1.087-4.004-0.305-5.82c0.598-1.39,1.933-2.289,2.967-3.393
						c1.801-1.924,2.726-4.695,2.229-7.284c-0.497-2.588-2.49-4.884-5.041-5.544c-2.605-0.674-5.781,0.184-7.746-1.654
						c-1.424-1.332-1.553-3.557-2.666-5.158c-1.728-2.486-5.285-2.816-8.276-2.348c-2.991,0.468-6.025,1.49-8.976,0.816
						c-2.465-0.563-4.512-2.237-6.831-3.243c-5.027-2.182-11.372-0.824-15.065,3.225c-3.693,4.049-4.464,10.492-1.83,15.298
						c0.946,1.726,2.35,3.285,4.189,3.987"/>
					<g>
						<g>
							<g>
								<g>
									<g>
										<path style="fill:#B78876;" d="M238.707,381.844L238.707,381.844c-7.947,0.012-14.505-6.161-14.898-14.028
											c-0.327-6.553-0.601-12.862-0.601-12.862s-12.166-0.882-13.288-12.775c-1.122-11.894-1.276-39.399-1.276-39.399l0,0
											c13.421-7.045,29.636-6.341,42.379,1.841l1.157,0.743l1.406,61.55C253.676,375.123,246.991,381.831,238.707,381.844z"/>
									</g>
									<g>
										<g>
											<path style="fill:#263238;" d="M231.725,321.076c-0.917,0.302-1.415,1.284-1.11,2.193c0.304,0.909,1.294,1.401,2.212,1.1
												c0.917-0.302,1.415-1.283,1.11-2.193C233.633,321.266,232.643,320.774,231.725,321.076z"/>
										</g>
										<g>
											<g>
												<path style="fill:#263238;" d="M228.392,321.694c0.201,0.195,1.328-0.776,2.984-0.882
													c1.655-0.13,2.91,0.671,3.081,0.449c0.084-0.099-0.126-0.46-0.675-0.825c-0.539-0.362-1.446-0.689-2.478-0.615
													c-1.032,0.074-1.882,0.526-2.363,0.961C228.451,321.22,228.295,321.608,228.392,321.694z"/>
											</g>
										</g>
									</g>
									<g>
										<g>
											<path style="fill:#263238;" d="M213.568,321.076c-0.917,0.302-1.415,1.284-1.11,2.193s1.294,1.401,2.212,1.1
												c0.917-0.302,1.415-1.283,1.111-2.193C215.476,321.266,214.486,320.774,213.568,321.076z"/>
										</g>
										<g>
											<g>
												<path style="fill:#263238;" d="M210.012,321.731c0.201,0.195,1.328-0.776,2.984-0.882
													c1.655-0.13,2.91,0.671,3.081,0.449c0.084-0.099-0.126-0.46-0.675-0.825c-0.539-0.363-1.446-0.689-2.478-0.615
													c-1.032,0.074-1.882,0.526-2.363,0.961C210.071,321.257,209.915,321.645,210.012,321.731z"/>
											</g>
										</g>
									</g>
									<g>
										<g>
											<path style="fill:#263238;" d="M222.509,334.591c0.001-0.129-1.039-0.252-2.722-0.346
												c-0.437-0.012-0.784-0.081-0.834-0.31c-0.099-0.253,0.031-0.724,0.209-1.253c0.337-1.119,0.678-2.251,1.036-3.437
												c1.419-4.893,2.366-8.916,2.116-8.987c-0.251-0.071-1.604,3.836-3.023,8.729c-0.333,1.193-0.65,2.332-0.964,3.458
												c-0.118,0.509-0.372,1.112-0.091,1.802c0.148,0.345,0.51,0.574,0.802,0.625c0.294,0.063,0.538,0.043,0.746,0.036
												C221.466,334.832,222.508,334.72,222.509,334.591z"/>
										</g>
									</g>
									<g>
										<path style="fill:#FFFFFF;" d="M228.032,335.969c-3.317,1.61-4.857,2.102-7.923,2.991c0,0,2.182,2.904,5.543,1.368
											C229.141,338.734,228.032,335.969,228.032,335.969z"/>
									</g>
									<g>
										<path style="fill:#A36957;" d="M223.175,354.784c0,0,7.642,0,15.3-5.675c0,0-3.001,8.867-15.076,8.762L223.175,354.784z"
											/>
									</g>
								</g>
							</g>
							<g>
								<g>
									<path style="fill:#B78876;" d="M252.471,317.391c-0.012-0.963,0.73-1.792,1.701-1.838c2.243-0.105,5.931,0.706,6.395,6.837
										c0.663,8.759-7.889,6.737-7.924,6.487C252.616,328.682,252.514,320.799,252.471,317.391z"/>
								</g>
								<g>
									<g>
										<path style="fill:#A36957;" d="M254.525,325.393c0.037-0.031,0.162,0.095,0.431,0.194
											c0.262,0.096,0.705,0.143,1.153-0.062c0.908-0.41,1.583-1.937,1.506-3.519c-0.037-0.799-0.264-1.546-0.596-2.153
											c-0.319-0.621-0.77-1.037-1.247-1.085c-0.476-0.072-0.788,0.232-0.877,0.486c-0.1,0.254-0.031,0.425-0.076,0.443
											c-0.023,0.024-0.201-0.132-0.157-0.5c0.024-0.176,0.111-0.391,0.306-0.575c0.199-0.187,0.505-0.297,0.835-0.287
											c0.685-0.004,1.345,0.571,1.711,1.238c0.403,0.667,0.676,1.504,0.718,2.401c0.077,1.769-0.709,3.489-1.959,3.95
											c-0.609,0.207-1.142,0.06-1.426-0.127C254.557,325.604,254.496,325.411,254.525,325.393z"/>
									</g>
								</g>
							</g>
						</g>
						<g>
							<path style="fill:#263238;" d="M234.293,316.812c-0.374,0.481-1.68,0.256-3.375,0.184c-1.692-0.136-3.016-0.072-3.325-0.595
								c-0.35-0.545,1.287-1.796,3.47-1.617C233.251,314.874,234.712,316.315,234.293,316.812z"/>
						</g>
						<g>
							<path style="fill:#263238;" d="M215.178,316.507c-0.125,0.607-1.223,0.896-2.462,1.013c-1.241,0.1-2.373,0.006-2.602-0.57
								c-0.232-0.559,0.809-1.499,2.407-1.637C214.119,315.172,215.308,315.917,215.178,316.507z"/>
						</g>
					</g>
					<path style="fill:#263238;" d="M206.953,306.546c0,0,7.217,3.494,16.609-1.194c6.163-3.076,13.348-4.579,14.932-3.34
						c1.584,1.239,1.918,7.59,8.024,9.444c0,0-0.419,12.117,4.412,11.685c4.831-0.432,1.812-19.199,1.812-19.199l-11.819-5.772
						l-12.897-2.437l-12.152,1.713l-9.403,2.575L206.953,306.546z"/>
				</g>
			</g>
		</g>
		<g>
			<g>
				<path style="fill:#455A64;" d="M163.779,327.292c0.427,0.685,14.329,48.853,14.329,48.853l-27.582,3.761l-12.686-39.305
					L163.779,327.292z"/>
				<polygon style="fill:#263238;" points="178.108,376.145 180.586,374.826 166.153,326.027 163.482,327.444 				"/>
				<path style="fill:#263238;" d="M152.224,340.081c0.136,0.632-0.267,1.253-0.898,1.389c-0.632,0.135-1.253-0.267-1.389-0.898
					c-0.136-0.632,0.267-1.253,0.898-1.389C151.467,339.047,152.089,339.45,152.224,340.081z"/>
			</g>
			<path style="fill:#B78876;" d="M172.905,398.129l-18.094,11.787l-3.33-42.171l0,0l0.282-2.107l12.258-4.678l-3.524-9.026
				c-1.722-4.211-6.675-6.052-10.73-3.989c-1.307,0.665-2.682,1.365-3.924,1.999c-2.796,1.425-4.865,3.962-5.673,6.994
				c-1.393,5.225-2.633,10.871-2.503,10.38l0.001,0h-0.001l-7.753,54.283c0,0-3.687,15.651,7.021,23.097
				c8.091,5.626,21.716-0.348,28.948-4.436l31.339-18.887L172.905,398.129z"/>
		</g>
	</g>
</g>
<g id="Character_1">
	<g>
		<g>
			<path style="fill:#EB996E;" d="M191.393,176.762l-12.276-18.675l-20.692,13l18.759,28.928
				C177.184,200.015,187.505,188.817,191.393,176.762z"/>
			<g>
				<path style="fill:#263238;" d="M114.488,83.365c1.013-1.114-0.36-2.857-1.775-3.371c-1.415-0.514-3.178-0.751-3.854-2.096
					c-0.821-1.632,0.629-3.457,0.891-5.265c0.279-1.934-0.836-3.773-1.167-5.699c-0.421-2.451,0.539-5.092,2.436-6.701
					c1.896-1.608,4.66-2.124,7.009-1.308c0.15-3.767,2.81-7.309,6.385-8.504c3.575-1.195,7.83,0.036,10.215,2.955
					c1.864-1.417,3.757-2.851,5.929-3.727c2.172-0.876,4.694-1.142,6.836-0.196c2.142,0.947,3.732,3.303,3.318,5.608
					c1.621-1.927,4.637-2.305,6.913-1.227c2.275,1.078,3.821,3.358,4.483,5.787c0.926,3.393,0.119,7.395-2.587,9.641
					c-2.706,2.246-7.34,2.037-9.344-0.853"/>
				<g>
					<g>
						<g>
							<g>
								<g>
									<g>
										<path style="fill:#FFBE9D;" d="M127.767,140.837L127.767,140.837c7.436,0.012,13.571-5.765,13.938-13.125
											c0.306-6.131,0.562-12.034,0.562-12.034s11.383-0.825,12.433-11.952c1.05-11.128,1.194-36.862,1.194-36.862l0,0
											c-12.557-6.591-27.728-5.933-39.649,1.722l-1.083,0.695l-1.315,57.586C113.762,134.549,120.016,140.825,127.767,140.837z"
											/>
									</g>
									<g>
										<g>
											<path style="fill:#263238;" d="M134.299,83.982c0.858,0.282,1.324,1.201,1.039,2.051
												c-0.285,0.851-1.211,1.311-2.07,1.029c-0.858-0.282-1.324-1.201-1.039-2.051C132.514,84.16,133.44,83.7,134.299,83.982z"
												/>
										</g>
										<g>
											<g>
												<path style="fill:#263238;" d="M137.417,84.561c-0.188,0.183-1.243-0.726-2.792-0.825
													c-1.549-0.122-2.723,0.628-2.882,0.42c-0.079-0.093,0.118-0.431,0.631-0.771c0.504-0.339,1.352-0.645,2.318-0.576
													c0.965,0.069,1.761,0.492,2.211,0.899C137.362,84.118,137.508,84.48,137.417,84.561z"/>
											</g>
										</g>
									</g>
									<g>
										<g>
											<path style="fill:#263238;" d="M151.286,83.982c0.858,0.282,1.324,1.201,1.039,2.051
												c-0.285,0.851-1.211,1.311-2.07,1.029c-0.858-0.282-1.324-1.201-1.039-2.051C149.501,84.16,150.428,83.7,151.286,83.982z
												"/>
										</g>
										<g>
											<g>
												<path style="fill:#263238;" d="M154.614,84.595c-0.188,0.183-1.243-0.726-2.792-0.825
													c-1.549-0.122-2.723,0.628-2.882,0.42c-0.079-0.093,0.118-0.43,0.631-0.771c0.504-0.339,1.352-0.645,2.318-0.576
													c0.965,0.069,1.761,0.492,2.211,0.899C154.559,84.152,154.704,84.515,154.614,84.595z"/>
											</g>
										</g>
									</g>
									<g>
										<g>
											<path style="fill:#263238;" d="M142.922,96.627c-0.001-0.121,0.972-0.236,2.546-0.324
												c0.409-0.011,0.734-0.076,0.781-0.289c0.093-0.237-0.029-0.678-0.196-1.173c-0.315-1.047-0.635-2.106-0.969-3.216
												c-1.328-4.578-2.214-8.342-1.98-8.408c0.234-0.067,1.501,3.589,2.829,8.167c0.311,1.116,0.609,2.182,0.902,3.235
												c0.111,0.476,0.348,1.041,0.085,1.686c-0.139,0.322-0.477,0.536-0.75,0.584c-0.275,0.059-0.503,0.041-0.698,0.034
												C143.897,96.852,142.923,96.748,142.922,96.627z"/>
										</g>
									</g>
									<g>
										<path style="fill:#FFFFFF;" d="M137.754,97.916c3.103,1.507,4.544,1.967,7.413,2.798c0,0-2.042,2.717-5.186,1.28
											C136.716,100.503,137.754,97.916,137.754,97.916z"/>
									</g>
									<g>
										<path style="fill:#EB996E;" d="M142.299,115.52c0,0-7.15-0.001-14.315-5.309c0,0,2.808,8.296,14.105,8.197L142.299,115.52
											z"/>
									</g>
								</g>
							</g>
							<g>
								<g>
									<path style="fill:#FFBE9D;" d="M114.889,85.626c0.011-0.901-0.683-1.677-1.591-1.719c-2.098-0.098-5.549,0.661-5.983,6.397
										c-0.62,8.195,7.381,6.303,7.413,6.069C114.753,96.19,114.849,88.815,114.889,85.626z"/>
								</g>
								<g>
									<g>
										<path style="fill:#EB996E;" d="M112.967,93.113c-0.034-0.029-0.152,0.089-0.403,0.182
											c-0.245,0.09-0.659,0.134-1.078-0.058c-0.849-0.383-1.481-1.813-1.409-3.292c0.035-0.748,0.247-1.446,0.558-2.014
											c0.298-0.581,0.721-0.97,1.166-1.015c0.445-0.067,0.737,0.217,0.82,0.455c0.093,0.238,0.029,0.397,0.071,0.414
											c0.021,0.022,0.188-0.124,0.147-0.467c-0.022-0.165-0.104-0.366-0.287-0.538c-0.187-0.175-0.472-0.278-0.781-0.268
											c-0.641-0.004-1.259,0.535-1.601,1.158c-0.377,0.624-0.632,1.408-0.672,2.247c-0.072,1.655,0.664,3.264,1.833,3.696
											c0.57,0.194,1.069,0.056,1.334-0.118C112.937,93.311,112.995,93.13,112.967,93.113z"/>
									</g>
								</g>
							</g>
						</g>
						<g>
							<path style="fill:#263238;" d="M131.896,79.993c0.35,0.45,1.571,0.239,3.158,0.172c1.583-0.127,2.822-0.067,3.111-0.557
								c0.328-0.51-1.204-1.68-3.246-1.513C132.872,78.18,131.504,79.528,131.896,79.993z"/>
						</g>
						<g>
							<path style="fill:#263238;" d="M149.78,79.708c0.116,0.568,1.144,0.838,2.303,0.947c1.161,0.093,2.22,0.005,2.435-0.533
								c0.217-0.522-0.756-1.402-2.252-1.531C150.772,78.459,149.658,79.156,149.78,79.708z"/>
						</g>
					</g>
					<path style="fill:#263238;" d="M157.476,70.388c0,0-6.752,3.269-15.54-1.117c-5.767-2.878-12.488-4.284-13.97-3.125
						c-1.482,1.159-1.795,7.101-7.507,8.836c0,0,0.392,11.337-4.128,10.932c-4.52-0.404-1.695-17.963-1.695-17.963l11.058-5.4
						l12.067-2.28l11.37,1.603l8.797,2.409L157.476,70.388z"/>
				</g>
			</g>
			<g>
				<g>
					<path style="fill:#E8505B;" d="M81.8,135.989c11.816-12.152,32.614-10.826,32.614-10.826l27.015,0.96
						c0,0,10.274,1.128,19.9,6.158l0.663,0.205l-0.008,0.138c7.562,4.106,18.27,13.955,28.471,23.513l-12.207,11.328l-13.511,11.993
						c0,0,0.053,0.087,0.023,0.24c-0.141,0.727,2.195,15.238,4.263,27.776c-11.871,9.209-26.848,14.574-43.039,14.259
						c-10.309-0.201-20.037-2.686-28.715-6.957l-1.01-11.59c-0.921-10.509-1.623-23.52-1.623-23.52"/>
					<g>
						<path style="fill:#263238;" d="M152.24,128.242c0.017-0.006,0.09,0.165,0.212,0.495c0.136,0.387,0.305,0.867,0.511,1.451
							c0.436,1.262,1.032,3.1,1.738,5.381c1.414,4.561,3.22,10.909,4.933,17.993c1.709,7.087,2.999,13.561,3.823,18.264
							c0.413,2.352,0.722,4.259,0.91,5.581c0.083,0.613,0.152,1.117,0.207,1.524c0.042,0.349,0.055,0.534,0.037,0.537
							s-0.066-0.176-0.141-0.52c-0.081-0.402-0.181-0.9-0.304-1.507c-0.267-1.384-0.63-3.261-1.072-5.547
							c-0.915-4.681-2.261-11.133-3.967-18.209c-1.711-7.073-3.458-13.426-4.78-18.01c-0.65-2.236-1.184-4.072-1.578-5.425
							c-0.168-0.596-0.306-1.085-0.417-1.48C152.261,128.429,152.222,128.248,152.24,128.242z"/>
					</g>
					<g>
						<path style="fill:#263238;" d="M163.34,171.682c-0.091-0.112,5.079-4.474,11.545-9.742c6.468-5.27,11.784-9.45,11.875-9.339
							c0.091,0.111-5.077,4.473-11.546,9.743C168.748,167.612,163.431,171.794,163.34,171.682z"/>
					</g>
					<path style="opacity:0.2;" d="M97.398,152.668l-10.577,34.791l3.936,2.047l3.88-9.84
						C94.637,179.666,98.625,158.996,97.398,152.668z"/>
					<g style="opacity:0.2;">
						<path d="M151.094,128.263c5.701,3.006-8.587,10.238-15.04,10.043l4.686-12.364
							C140.74,125.942,149.181,127.255,151.094,128.263z"/>
					</g>
				</g>
				<path style="fill:#E8505B;" d="M112.714,125.942v-9.213c0,0,17.995,4.63,18.648,15.397c0,0,2.289-11.901,11.56-12.472
					l1.309,16.741l-10.788,9.387h-10.936l-8.662-7.471l-1.132-11.625"/>
				<g>
					<path style="fill:#263238;" d="M135.412,183.769c-0.018-0.001-0.027-0.178-0.029-0.514c0.005-0.395,0.011-0.88,0.018-1.467
						c0.033-1.273,0.062-3.115,0.073-5.39c0.025-4.55-0.111-10.839-0.682-17.757c-0.579-6.92-1.482-13.145-2.258-17.629
						c-0.386-2.242-0.719-4.054-0.961-5.304c-0.104-0.578-0.19-1.055-0.26-1.444c-0.054-0.331-0.074-0.507-0.056-0.511
						c0.018-0.004,0.072,0.164,0.159,0.489c0.096,0.384,0.213,0.854,0.356,1.424c0.304,1.238,0.692,3.042,1.125,5.28
						c0.87,4.475,1.834,10.712,2.415,17.652c0.572,6.938,0.651,13.247,0.531,17.805c-0.058,2.279-0.143,4.123-0.238,5.394
						c-0.046,0.586-0.085,1.069-0.116,1.463C135.455,183.595,135.429,183.77,135.412,183.769z"/>
				</g>
				<g>
					<path style="fill:#263238;" d="M130.534,129.027c-0.004,0.048-0.406-0.169-1.073,0.082c-0.327,0.124-0.687,0.371-0.992,0.773
						c-0.311,0.397-0.564,0.927-0.839,1.53c-1.114,2.393-2.488,5.845-3.443,9.958l-0.079,0.341l-0.301-0.182
						c-1.075-0.65-2.177-1.352-3.285-2.104c-2.148-1.462-4.116-2.953-5.832-4.426c-0.862-0.74-1.57-1.632-1.978-2.582
						c-0.403-0.951-0.563-1.904-0.609-2.763c-0.075-1.727,0.203-3.094,0.382-4.024c0.195-0.931,0.341-1.436,0.374-1.429
						c0.038,0.007-0.041,0.527-0.174,1.464c-0.118,0.934-0.335,2.299-0.215,3.965c0.068,0.828,0.243,1.73,0.636,2.611
						c0.401,0.88,1.054,1.686,1.901,2.398c1.703,1.427,3.678,2.907,5.808,4.355c1.101,0.747,2.194,1.448,3.258,2.1l-0.38,0.159
						c0.99-4.152,2.44-7.616,3.642-9.985c0.295-0.591,0.581-1.137,0.936-1.549c0.348-0.417,0.77-0.673,1.134-0.778
						C130.158,128.724,130.56,129.023,130.534,129.027z"/>
				</g>
				<g>
					<path style="fill:#263238;" d="M142.922,119.654c0.036-0.001,0.085,0.512,0.148,1.439c0.071,1.024,0.161,2.342,0.27,3.923
						c0.13,1.653,0.327,3.617,0.662,5.781c0.131,1.068,0.502,2.227,0.214,3.516c-0.367,1.266-1.327,2.222-2.348,2.994
						c-1.436,1.067-2.947,1.872-3.966,3.016l-0.397,0.446l-0.04-0.595c-0.255-3.815-1.534-6.951-2.681-8.986
						c-1.154-2.051-2.106-3.1-2.041-3.152c0.02-0.018,0.273,0.229,0.696,0.722c0.42,0.496,0.997,1.252,1.618,2.271
						c1.24,2.02,2.615,5.2,2.907,9.11l-0.437-0.149c1.093-1.24,2.646-2.066,4.026-3.099c0.984-0.734,1.858-1.644,2.168-2.705
						c0.259-1.078-0.063-2.229-0.194-3.319c-0.312-2.183-0.471-4.164-0.555-5.827c-0.083-1.663-0.103-3.01-0.106-3.94
						C142.867,120.17,142.886,119.656,142.922,119.654z"/>
				</g>
			</g>
		</g>
		<g>
			<g>
				<path style="fill:#263238;" d="M200.84,121.966c-0.732,0.862-27.223,36.284-27.223,36.284l3.729,2.113l27.185-34.972
					L200.84,121.966z"/>
				<path style="fill:#FFBE9D;" d="M94.419,149.972c0,0,27.869,40.117,29.548,40.905c3.308,1.553,41.434-31.395,45.07-34.547
					c0.501-0.669,1.535-2.082,3.566-4.892c0,0,3.008-13.765,6.218-12.708c3.21,1.057-1.759,6.995,0.332,12.225
					c2.091,5.23,11.665-7.244,12.048-8.364l2.469-3.226c0,0,2.589,7.341,2.414,10.407c-0.562,9.82-9.853,21.499-9.853,21.499
					s-41.726,51.688-70.307,53.292c-8.232,0.462-22.861-22.896-32.641-40.411c-5.906-10.577-2.959-23.902,6.83-31.039
					L94.419,149.972z"/>
				<g>
					<path style="fill:#EB996E;" d="M191.393,151.517c-0.077-0.048,0.828-1.619,1.815-3.62c0.993-1.999,1.692-3.672,1.777-3.639
						c0.077,0.028-0.496,1.762-1.497,3.778C192.493,150.053,191.462,151.561,191.393,151.517z"/>
				</g>
			</g>
			<g>
				<path style="fill:#E8505B;" d="M89.701,130.395c0,0-29.913,10.635-7.673,60.937l34.531-20.841l-4.912-11.763L89.701,130.395z"/>
				<g>
					<path style="fill:#263238;" d="M87.409,131.265c0-0.009,0.08-0.016,0.237-0.021c0.188-0.002,0.418-0.005,0.698-0.009
						c0.613,0.004,1.521,0.086,2.661,0.353c1.13,0.294,2.488,0.797,3.912,1.661c1.426,0.857,2.907,2.063,4.347,3.576
						c2.896,3.025,5.599,7.246,8.109,12.136c2.527,4.89,4.886,10.459,7.308,16.312c0.725,1.753,1.44,3.481,2.118,5.118l0.089,0.215
						l-0.204,0.111c-9.991,5.448-18.689,10.554-24.833,14.38c-3.075,1.909-5.522,3.479-7.201,4.573
						c-0.812,0.526-1.456,0.943-1.933,1.252c-0.443,0.282-0.679,0.423-0.689,0.41c-0.009-0.014,0.209-0.182,0.634-0.49
						c0.427-0.306,1.055-0.763,1.883-1.328c1.647-1.143,4.068-2.76,7.121-4.709c6.101-3.907,14.778-9.074,24.77-14.54l-0.115,0.326
						c-0.678-1.637-1.395-3.365-2.122-5.118c-2.421-5.851-4.762-11.413-7.254-16.292c-2.474-4.88-5.125-9.085-7.949-12.102
						c-1.404-1.51-2.845-2.715-4.231-3.581c-1.385-0.872-2.706-1.393-3.811-1.713C88.715,131.207,87.402,131.345,87.409,131.265z"/>
				</g>
			</g>
		</g>
	</g>
</g>
<g id="Icon">
	<g>
		<g>
			<g>
				<g>
					<path style="fill:#263238;" d="M255.23,268.434c-0.016,3.461-2.835,6.253-6.295,6.237c-3.461-0.016-6.253-2.835-6.237-6.295
						c0.016-3.461,2.835-6.253,6.295-6.237C252.454,262.155,255.246,264.974,255.23,268.434z"/>
					<g>
						<path style="fill:#263238;" d="M236.44,260.379c6.881-7.226,18.066-7.445,25.124-0.332c3.199,3.224,8.207-1.735,5.007-4.961
							c-9.684-9.76-25.58-9.702-35.092,0.285C228.352,258.656,233.304,263.672,236.44,260.379L236.44,260.379z"/>
					</g>
					<g>
						<path style="fill:#263238;" d="M215.156,231.212c9.528-8.238,20.904-13.422,33.641-13.454
							c12.625-0.031,25.074,4.451,34.321,13.134c3.303,3.102,8.322-1.848,5.007-4.961c-10.592-9.947-24.797-15.258-39.295-15.222
							c-14.658,0.036-27.684,6.028-38.634,15.495C206.758,229.177,211.737,234.168,215.156,231.212L215.156,231.212z"/>
					</g>
					<g>
						<path style="fill:#263238;" d="M223.556,247.376c6.388-6.906,15.34-11.231,24.802-11.447
							c9.719-0.222,19.103,3.782,25.859,10.723c3.169,3.256,8.175-1.706,5.007-4.961c-7.996-8.215-19.326-13.073-30.834-12.811
							c-11.254,0.257-22.16,5.235-29.795,13.488C215.52,245.694,220.467,250.714,223.556,247.376L223.556,247.376z"/>
					</g>
				</g>
			</g>
		</g>
		<g>
			<g>
				<g>
					<path style="fill:#455A64;" d="M255.358,263.951c-0.016,3.461-2.835,6.253-6.295,6.237c-3.461-0.016-6.253-2.835-6.237-6.295
						c0.016-3.461,2.835-6.253,6.295-6.237C252.581,257.672,255.374,260.49,255.358,263.951z"/>
					<g>
						<path style="fill:#455A64;" d="M236.568,255.896c6.881-7.226,18.066-7.445,25.124-0.332c3.199,3.224,8.207-1.735,5.007-4.961
							c-9.684-9.76-25.58-9.702-35.091,0.285C228.48,254.173,233.432,259.189,236.568,255.896L236.568,255.896z"/>
					</g>
					<g>
						<path style="fill:#455A64;" d="M215.284,226.729c9.528-8.238,20.904-13.422,33.641-13.454
							c12.625-0.031,25.074,4.451,34.321,13.134c3.303,3.102,8.322-1.848,5.007-4.961c-10.592-9.947-24.797-15.258-39.295-15.222
							c-14.658,0.036-27.684,6.028-38.634,15.495C206.886,224.694,211.865,229.685,215.284,226.729L215.284,226.729z"/>
					</g>
					<g>
						<path style="fill:#455A64;" d="M223.683,242.893c6.388-6.906,15.34-11.231,24.802-11.447
							c9.719-0.222,19.103,3.782,25.859,10.723c3.169,3.256,8.175-1.706,5.007-4.961c-7.996-8.215-19.326-13.073-30.834-12.811
							c-11.254,0.257-22.16,5.235-29.795,13.488C215.647,241.21,220.595,246.231,223.683,242.893L223.683,242.893z"/>
					</g>
				</g>
			</g>
		</g>
	</g>
</g>
</svg>
